<?xml version="1.0" encoding="utf-8"?>
<!-- Generator: Fusion 360, Shaper Origin Export Add-In, Version 1.9.0  -->
<svg xmlns="http://www.w3.org/2000/svg" xmlns:xlink="http://www.w3.org/1999/xlink" xmlns:shaper="http://www.shapertools.com/namespaces/shaper" shaper:fusionaddin="version:1.9.0" width="16.9175343cm" height="14.0312821cm" version="1.1" x="0cm" y="0cm" viewBox="0 0 16.9175343 14.0312821" enable-background="new 0 0 16.9175343 14.0312821" xml:space="preserve"><path d="M-27.5029203,-6.9325822 L-27.5029203,-6.9325822 -27.416735,-6.9270465 -27.3311958,-6.9214981 -27.2463027,-6.9159369 -27.1620553,-6.9103629 -27.0784533,-6.9047758 -26.995496,-6.8991756 -26.913183,-6.8935622 -26.8315135,-6.8879353 -26.7504868,-6.8822946 -26.6701018,-6.8766401 -26.5903577,-6.8709713 -26.5112533,-6.8652879 -26.4327875,-6.8595897 -26.354959,-6.8538762 -26.2777665,-6.8481471 -26.2012085,-6.842402 -26.1252835,-6.8366403 -26.04999,-6.8308616 -25.9753261,-6.8250655 -25.9012902,-6.8192513 -25.8278805,-6.8134185 -25.7550949,-6.8075665 -25.6829316,-6.8016947 -25.6113884,-6.7958024 -25.5404632,-6.789889 -25.4701539,-6.7839538 -25.400458,-6.777996 -25.3313734,-6.7720149 -25.2628976,-6.7660096 -25.1950282,-6.7599795 -25.1277625,-6.7539236 -25.0610981,-6.7478411 -24.9295622,-6.7355926 -24.8003986,-6.7232266 -24.6735847,-6.7107352 -24.549097,-6.69811 -24.4269111,-6.6853424 -24.3070021,-6.6724232 -24.1893443,-6.6593428 -24.0739115,-6.6460912 -23.9606769,-6.6326582 -23.8496132,-6.6190328 -23.7406927,-6.605204 -23.6338873,-6.59116 -23.5291683,-6.576889 -23.4265069,-6.5623784 -23.3258738,-6.5476157 -23.2272396,-6.5325874 -23.1305742,-6.5172802 -23.0358478,-6.50168 -22.9430298,-6.4857726 -22.8520896,-6.4695431 -22.7629966,-6.4529765 -22.6757198,-6.4360573 -22.590228,-6.4187697 -22.50649,-6.4010975 -22.4244746,-6.3830239 -22.3441501,-6.3645322 -22.2654853,-6.3456048 -22.1884485,-6.3262242 -22.1130083,-6.3063723 -22.0391332,-6.2860306 -21.9667916,-6.2651805 -21.8959521,-6.2438026 -21.8265835,-6.2218777 -21.7586544,-6.1993857 -21.6921339,-6.1763067 -21.6269909,-6.1526199 -21.5631947,-6.1283046 -21.5007146,-6.1033395 -21.4395204,-6.0777031 -21.3795818,-6.0513736 -21.3208688,-6.0243287 -21.2633518,-5.996546 -21.207001,-5.9680027 -21.1517873,-5.9386757 -21.0976817,-5.9085416 -21.0446552,-5.8775767 -20.9926793,-5.8457571 -20.9417258,-5.8130586 -20.8917667,-5.7794568 -20.8427741,-5.7449269 -20.7947207,-5.7094439 -20.7475794,-5.6729826 -20.7013232,-5.6355177 -20.6559257,-5.5970233 -20.6113607,-5.5574737 -20.5676021,-5.5168427 -20.5246246,-5.4751039 -20.4824029,-5.432231 -20.4409122,-5.3881971 -20.4001279,-5.3429754 -20.3600259,-5.2965388 -20.3205825,-5.2488601 -20.2817743,-5.1999119 -20.2435783,-5.1496665 -20.2059719,-5.0980964 -20.1689328,-5.0451737 -20.1324394,-4.9908707 -20.09647,-4.9351594 -20.0610038,-4.8780119 -20.0260201,-4.8194002 -19.9914986,-4.7592963 -19.9574196,-4.6976724 -19.9237636,-4.6345005 -19.8905117,-4.5697529 -19.8576452,-4.5034018 -19.8251461,-4.4354196 -19.7929965,-4.3657788 -19.7611792,-4.294452 -19.7296773,-4.2214121 -19.6984744,-4.1466322 -19.6675543,-4.0700855 -19.6369016,-3.9917454 -19.6065011,-3.9115857 -19.5763381,-3.8295804 -19.5463984,-3.7457038 -19.516668,-3.6599305 -19.4871338,-3.5722355 -19.4577827,-3.4825941 -19.4286023,-3.390982 -19.3995807,-3.2973755 -19.3707063,-3.2017511 -19.341968,-3.1040861 -19.3133554,-3.0043582 -19.2848582,-2.9025458 -19.256467,-2.7986279 -19.2281724,-2.6925844 -19.199966,-2.5843959 -19.1718395,-2.4740435 -19.1437853,-2.3615096 -19.1157961,-2.2467773 -19.0878655,-2.1298306 -19.0599871,-2.0106546 -19.0321555,-1.8892353 -19.0043653,-1.76556 -18.9766122,-1.6396168 -18.9488919,-1.5113954 -18.9212009,-1.3808863 -18.8935362,-1.2480817 -18.8658954,-1.1129746 -18.8382764,-0.9755598 -18.8106779,-0.8358334 -18.783099,-0.6937927 -18.783099,-0.6937927 -18.4870737,1.2824089 -18.4870737,1.2824089 -18.4690995,1.3537425 -18.4502938,1.4245761 -18.4306572,1.4949099 -18.410191,1.5647445 -18.3888968,1.6340805 -18.3667766,1.7029188 -18.3438327,1.7712603 -18.3200678,1.8391063 -18.2954851,1.9064579 -18.270088,1.9733167 -18.2438802,2.039684 -18.2168657,2.1055616 -18.1890489,2.1709511 -18.1604343,2.2358544 -18.1310268,2.3002733 -18.1008315,2.3642099 -18.0698537,2.4276662 -18.0380989,2.4906442 -18.0055728,2.5531462 -17.9722813,2.6151742 -17.9382304,2.6767305 -17.9034264,2.7378173 -17.8678754,2.7984368 -17.831584,2.8585913 -17.7945587,2.918283 -17.7568061,2.977514 -17.7183328,3.0362867 -17.6791456,3.0946031 -17.6392512,3.1524654 -17.5986565,3.2098756 -17.5573683,3.2668358 -17.5153934,3.3233479 -17.4727387,3.379414 -17.4294112,3.4350358 -17.3854177,3.4902153 -17.3407651,3.5449541 -17.2954603,3.5992541 -17.2495101,3.6531167 -17.2029215,3.7065436 -17.1557011,3.7595362 -17.1078559,3.812096 -17.0593925,3.8642242 -17.0103175,3.9159221 -16.9606377,3.9671908 -16.9103595,4.0180314 -16.8594895,4.0684447 -16.808034,4.1184317 -16.7559993,4.167993 -16.7033918,4.2171292 -16.6502173,4.2658409 -16.5964821,4.3141284 -16.5421919,4.3619921 -16.4873526,4.4094319 -16.4319698,4.456448 -16.376049,4.5030402 -16.3195955,4.5492082 -16.2626148,4.5949518 -16.2051119,4.6402703 -16.1470918,4.6851632 -16.0885593,4.7296298 -16.0295193,4.7736691 -15.9699764,4.8172802 -15.909935,4.8604619 -15.8493994,4.903213 -15.7883739,4.9455322 -15.7268625,4.9874179 -15.6648692,5.0288686 -15.6023976,5.0698826 -15.5394516,5.1104579 -15.4760345,5.1505927 -15.4121498,5.1902847 -15.3478006,5.229532 -15.2829899,5.268332 -15.2177208,5.3066823 -15.151996,5.3445805 -15.0858181,5.3820238 -15.0191895,5.4190094 -14.9521126,5.4555344 -14.8845895,5.4915958 -14.8166223,5.5271904 -14.7482128,5.562315 -14.6793627,5.5969662 -14.6100737,5.6311406 -14.5403471,5.6648347 -14.4701843,5.6980448 -14.3995865,5.7307673 -14.3285547,5.7629984 -14.2570898,5.7947341 -14.1851927,5.8259708 -14.112864,5.8567042 -14.0401044,5.8869306 -13.9669142,5.9166456 -13.8932938,5.9458454 -13.8192435,5.9745256 -13.7447635,6.0026822 -13.6698537,6.0303109 -13.5945141,6.0574074 -13.5187446,6.0839676 -13.4425449,6.1099871 -13.3659147,6.1354616 -13.2888537,6.1603869 -13.2113612,6.1847587 -13.1334367,6.2085728 -13.0550797,6.2318248 -12.9762893,6.2545105 -12.8970649,6.2766258 -12.8174055,6.2981664 -12.7373104,6.3191283 -12.6567785,6.3395073 -12.575809,6.3592997 -12.4944009,6.3785014 -12.4125532,6.3971088 -12.3302649,6.4151182 -12.247535,6.4325261 -12.1643626,6.449329 -12.0807466,6.4655238 -11.9966861,6.4811074 -11.9121802,6.4960769 -11.827228,6.5104295 -11.7418287,6.5241628 -11.6559814,6.5372745 -11.5696855,6.5497625 -11.4829403,6.5616249 -11.3957452,6.5728601 -11.3080997,6.5834667 -11.2200034,6.5934438 -11.1314559,6.6027903 -11.0424571,6.611506 A0.2689932,0.2689932 315.7179001 0,1 -11.2335008,7.0683037 L-11.2335008,7.0683037 -11.3253451,7.0687868 -11.4164878,7.0691863 -11.5069291,7.0695022 -11.5966693,7.0697343 -11.6857089,7.0698827 -11.7740484,7.0699472 -11.8616885,7.0699278 -11.9486299,7.0698244 -12.0348735,7.0696367 -12.1204203,7.0693647 -12.2052714,7.0690081 -12.2894279,7.0685669 -12.3728912,7.0680407 -12.4556625,7.0674293 -12.5377434,7.0667325 -12.6191355,7.0659501 -12.6998404,7.0650817 -12.7798598,7.064127 -12.8591956,7.0630856 -12.9378496,7.0619574 -13.015824,7.0607418 -13.0931208,7.0594385 -13.1697422,7.0580471 -13.2456904,7.0565672 -13.3209677,7.0549982 -13.3955766,7.0533399 -13.4695195,7.0515916 -13.542799,7.0497528 -13.6154177,7.0478231 -13.6873783,7.0458019 -13.7586836,7.0436885 -13.8293363,7.0414825 -13.8993394,7.0391833 -13.9686959,7.0367901 -14.0374087,7.0343023 -14.1054809,7.0317193 -14.1729156,7.0290404 -14.239716,7.0262648 -14.3058854,7.0233919 -14.3714271,7.0204208 -14.4363443,7.0173508 -14.5006405,7.0141812 -14.564319,7.0109109 -14.6273835,7.0075393 -14.6898373,7.0040655 -14.7516842,7.0004886 -14.8129275,6.9968076 -14.8735711,6.9930216 -14.9336186,6.9891298 -14.9930736,6.985131 -15.1102215,6.9768089 -15.225045,6.9680469 -15.3375749,6.9588365 -15.4478424,6.9491688 -15.5558791,6.9390344 -15.6617168,6.9284237 -15.7653881,6.9173266 -15.8669253,6.9057326 -15.9663616,6.8936312 -16.06373,6.881011 -16.159064,6.8678607 -16.2523973,6.8541684 -16.3437637,6.8399219 -16.4331973,6.8251086 -16.5207322,6.8097156 -16.6064028,6.7937296 -16.6902433,6.7771369 -16.7722884,6.7599236 -16.8525724,6.7420752 -16.9311299,6.7235771 -17.0079954,6.704414 -17.0832034,6.6845705 -17.1567883,6.6640308 -17.2287844,6.6427787 -17.299226,6.6207976 -17.3681471,6.5980706 -17.4355817,6.5745804 -17.5015634,6.5503093 -17.566126,6.5252393 -17.6293026,6.499352 -17.6911265,6.4726288 -17.7516305,6.4450504 -17.8108473,6.4165976 -17.8688093,6.3872506 -17.9255488,6.3569894 -17.9810975,6.3257935 -18.0354873,6.2936422 -18.0887494,6.2605147 -18.140915,6.2263896 -18.1920148,6.1912452 -18.2420795,6.1550598 -18.291139,6.1178112 -18.3392235,6.0794769 -18.3863623,6.0400343 -18.4325847,5.9994603 -18.4779196,5.9577318 -18.5223955,5.9148253 -18.5660405,5.870717 -18.6088825,5.8253831 -18.6509488,5.7787992 -18.6922666,5.7309411 -18.7328623,5.681784 -18.7727622,5.6313032 -18.8119922,5.5794734 -18.8505776,5.5262697 -18.8885435,5.4716664 -18.9259144,5.4156381 -18.9627143,5.358159 -18.9989671,5.2992035 -19.034696,5.2387457 -19.0699239,5.1767596 -19.1046731,5.1132193 -19.1389655,5.0480988 -19.1728228,4.9813722 -19.206266,4.9130135 -19.2393156,4.8429967 -19.2719919,4.7712962 -19.3043144,4.697886 -19.3363025,4.6227406 -19.367975,4.5458345 -19.39935,4.4671421 -19.4304454,4.3866385 -19.4612785,4.3042984 -19.4918663,4.2200972 -19.5222251,4.1340102 -19.5523707,4.0460131 -19.5823185,3.9560819 -19.6120835,3.8641928 -19.6416801,3.7703222 -19.6711221,3.6744473 -19.7004229,3.5765451 -19.7295955,3.4765936 -19.7586521,3.3745708 -19.7876046,3.2704556 -19.8164643,3.1642272 -19.845242,3.0558657 -19.873948,2.9453517 -19.9025918,2.8326665 -19.9311828,2.7177921 -19.9597294,2.6007116 -19.9882397,2.4814087 -20.0167212,2.3598681 -20.0451808,2.2360752 -20.0736248,2.1100169 -20.102059,1.9816806 -20.1304886,1.8510551 -20.1589182,1.7181302 -20.1873518,1.582897 -20.2157927,1.4453477 -20.2442438,1.3054757 -20.2727073,1.163276 -20.3011848,1.0187446 -20.3296772,0.8718791 -20.3296772,0.8718791 -20.6073307,-1.1087578 -20.6073307,-1.1087578 -20.6244666,-1.1770215 -20.6422914,-1.2448987 -20.6608048,-1.3123895 -20.6800057,-1.3794943 -20.6998932,-1.4462133 -20.7204658,-1.512547 -20.741722,-1.5784959 -20.7636599,-1.6440605 -20.7862774,-1.7092414 -20.8095722,-1.7740393 -20.8335419,-1.8384549 -20.8581837,-1.9024888 -20.8834948,-1.9661419 -20.9094721,-2.0294149 -20.9361124,-2.0923086 -20.9634124,-2.1548238 -20.9913688,-2.2169613 -21.0199778,-2.278722 -21.0492358,-2.3401066 -21.0791391,-2.4011158 -21.1096838,-2.4617505 -21.140866,-2.5220114 -21.1726818,-2.5818991 -21.2051272,-2.6414144 -21.2381981,-2.7005577 -21.2718905,-2.7593297 -21.3062005,-2.8177308 -21.3411238,-2.8757614 -21.3766566,-2.9334219 -21.4127948,-2.9907126 -21.4495345,-3.0476336 -21.4868717,-3.1041851 -21.5248025,-3.1603671 -21.563323,-3.2161795 -21.6024295,-3.2716223 -21.6421181,-3.3266953 -21.6823851,-3.381398 -21.7232269,-3.4357302 -21.76464,-3.4896913 -21.8066207,-3.5432808 -21.8491657,-3.5964979 -21.8922716,-3.6493418 -21.9359351,-3.7018117 -21.9801532,-3.7539065 -22.0249227,-3.8056252 -22.0702407,-3.8569664 -22.1161043,-3.9079288 -22.1625109,-3.958511 -22.2094577,-4.0087113 -22.2569424,-4.0585281 -22.3049626,-4.1079594 -22.3535161,-4.1570034 -22.4026009,-4.2056578 -22.4522149,-4.2539205 -22.5023565,-4.3017891 -22.553024,-4.349261 -22.604216,-4.3963337 -22.6559311,-4.4430044 -22.7081681,-4.4892702 -22.7609261,-4.535128 -22.814204,-4.5805748 -22.8680011,-4.6256073 -22.9223169,-4.6702221 -22.9771509,-4.7144156 -23.0325028,-4.7581844 -23.0883723,-4.8015245 -23.1447596,-4.8444321 -23.2016646,-4.8869034 -23.2590878,-4.928934 -23.3170295,-4.9705199 -23.3754902,-5.0116567 -23.4344708,-5.05234 -23.493972,-5.0925651 -23.5539948,-5.1323275 -23.6145405,-5.1716223 -23.6756103,-5.2104447 -23.7372056,-5.2487896 -23.7993281,-5.286652 -23.8619795,-5.3240266 -23.9251617,-5.3609081 -23.9888766,-5.3972911 -24.0531265,-5.4331702 -24.1179136,-5.4685397 -24.1832403,-5.503394 -24.2491091,-5.5377274 -24.3155226,-5.5715341 -24.3824836,-5.6048083 -24.4499948,-5.637544 -24.5180592,-5.6697354 -24.5866797,-5.7013766 -24.6558595,-5.7324614 -24.7256017,-5.7629838 -24.7959096,-5.7929379 -24.8667864,-5.8223175 -24.9382355,-5.8511167 -25.0102604,-5.8793292 -25.0828644,-5.9069491 -25.1560512,-5.9339703 -25.2298243,-5.9603868 -25.3041873,-5.9861925 -25.3791437,-6.0113815 -25.4546974,-6.0359478 -25.5308519,-6.0598855 -25.607611,-6.0831888 -25.6849783,-6.1058518 -25.7629575,-6.1278689 -25.8415523,-6.1492343 -25.9207663,-6.1699426 -26.0006032,-6.1899882 -26.0810665,-6.209366 -26.1621597,-6.2280707 -26.243886,-6.2460973 -26.326249,-6.263441 -26.4092518,-6.2800972 -26.4928974,-6.2960613 -26.5771888,-6.3113291 -26.6621289,-6.3258967 -26.7477203,-6.3397601 -26.8339656,-6.3529159 -26.920867,-6.3653608 -27.0084267,-6.3770918 -27.0966467,-6.3881061 -27.1855287,-6.3984015 -27.2750742,-6.4079758 -27.3652845,-6.4168272 -27.4561606,-6.4249544 -27.5477033,-6.4323563 -27.639913,-6.4390323 A0.2614544,0.2614544 93.9024345 1,1 -27.5029203,-6.9325822z" transform="matrix(1,0,0,-1,27.8835734,7.0699472)" stroke="none" fill="#ffffff" /></svg>