<?xml version="1.0" encoding="utf-8"?>
<!-- Generator: Fusion 360, Shaper Origin Export Add-In, Version 1.9.0  -->
<svg xmlns="http://www.w3.org/2000/svg" xmlns:xlink="http://www.w3.org/1999/xlink" xmlns:shaper="http://www.shapertools.com/namespaces/shaper" shaper:fusionaddin="version:1.9.0" width="16.864958cm" height="14.0348976cm" version="1.1" x="0cm" y="0cm" viewBox="0 0 16.864958 14.0348976" enable-background="new 0 0 16.864958 14.0348976" xml:space="preserve"><path d="M-11.2586416,7.0722973 L-11.2586416,7.0722973 -11.3496101,7.0727222 -11.4398808,7.0730613 -11.5294539,7.0733145 -11.6183298,7.0734816 -11.7065088,7.0735628 -11.7939916,7.0735578 -11.8807788,7.0734666 -11.9668712,7.0732892 -12.0522696,7.0730252 -12.1369749,7.0726747 -12.2209884,7.0722374 -12.3043111,7.0717132 -12.3869444,7.0711019 -12.4688895,7.0704031 -12.550148,7.0696168 -12.6307215,7.0687427 -12.7106115,7.0677804 -12.7898198,7.0667297 -12.8683482,7.0655902 -12.9461988,7.0643617 -13.0233733,7.0630438 -13.099874,7.0616361 -13.175703,7.0601383 -13.2508625,7.0585498 -13.3253549,7.0568704 -13.3991825,7.0550995 -13.4723478,7.0532368 -13.5448534,7.0512816 -13.6167019,7.0492336 -13.6878959,7.0470921 -13.7584383,7.0448567 -13.8283317,7.0425268 -13.8975791,7.0401018 -13.9661835,7.037581 -14.0341478,7.034964 -14.1014751,7.03225 -14.1681685,7.0294383 -14.2342311,7.0265284 -14.2996663,7.0235194 -14.3644772,7.0204107 -14.4286673,7.0172014 -14.4922398,7.013891 -14.5551982,7.0104785 -14.6175459,7.0069631 -14.6792866,7.0033441 -14.7404236,6.9996206 -14.8009606,6.9957916 -14.8609013,6.9918564 -14.9790081,6.9836633 -15.0947738,6.9750339 -15.2082286,6.9659601 -15.3194031,6.9564337 -15.4283284,6.946446 -15.5350358,6.9359881 -15.6395574,6.9250507 -15.7419251,6.913624 -15.8421717,6.9016981 -15.9403298,6.8892626 -16.0364325,6.8763066 -16.1305132,6.8628193 -16.2226055,6.848789 -16.3127429,6.834204 -16.4009596,6.8190521 -16.4872895,6.8033209 -16.5717668,6.7869975 -16.6544258,6.7700686 -16.7353008,6.7525208 -16.8144262,6.73434 -16.8918365,6.7155119 -16.967566,6.696022 -17.0416492,6.6758552 -17.1141202,6.6549962 -17.1850135,6.6334292 -17.254363,6.6111382 -17.3222027,6.5881068 -17.3885666,6.5643181 -17.4534883,6.5397551 -17.5170011,6.5144001 -17.5791385,6.4882353 -17.6399334,6.4612426 -17.6994186,6.4334034 -17.7576267,6.4046988 -17.8145901,6.3751097 -17.8703409,6.3446164 -17.924911,6.3131993 -17.9783318,6.2808382 -18.0306349,6.2475126 -18.081851,6.2132018 -18.1320112,6.1778847 -18.1811456,6.1415401 -18.2292846,6.1041464 -18.276458,6.0656818 -18.3226951,6.026124 -18.3680253,5.9854508 -18.4124772,5.9436395 -18.4560795,5.9006672 -18.4988603,5.8565107 -18.5408471,5.8111468 -18.5820676,5.7645517 -18.6225486,5.7167018 -18.6623168,5.6675729 -18.7013983,5.6171409 -18.739819,5.5653811 -18.7776042,5.5122691 -18.8147789,5.45778 -18.8513677,5.4018889 -18.8873946,5.3445707 -18.9228834,5.2858002 -18.9578574,5.2255522 -18.9923393,5.1638014 -19.0263517,5.1005223 -19.0599163,5.0356897 -19.0930548,4.9692782 -19.1257883,4.9012624 -19.1581373,4.831617 -19.1901219,4.7603167 -19.221762,4.6873364 -19.2530768,4.612651 -19.2840849,4.5362355 -19.3148048,4.4580651 -19.3452542,4.3781153 -19.3754506,4.2963614 -19.4054108,4.2127793 -19.4351512,4.1273449 -19.4646877,4.0400345 -19.4940357,3.9508244 -19.5232102,3.8596915 -19.5522256,3.7666128 -19.5810958,3.6715658 -19.6098342,3.5745281 -19.6384538,3.475478 -19.6669669,3.3743942 -19.6953853,3.271256 -19.7237206,3.166043 -19.7519833,3.0587358 -19.7801839,2.9493152 -19.8083321,2.8377631 -19.8364369,2.7240619 -19.8645072,2.608195 -19.8925508,2.4901463 -19.9205754,2.369901 -19.9485878,2.2474449 -19.9765945,2.1227648 -20.0046012,1.9958488 -20.0326131,1.8666856 -20.0606349,1.7352655 -20.0886705,1.6015795 -20.1167234,1.4656201 -20.1447964,1.3273809 -20.1728918,1.1868569 -20.201011,1.0440442 -20.2291551,0.8989405 -20.2291551,0.8989405 -20.6073307,-1.1087578 -20.6073307,-1.1087578 -20.6244666,-1.1770215 -20.6422914,-1.2448987 -20.6608048,-1.3123895 -20.6800057,-1.3794943 -20.6998932,-1.4462133 -20.7204658,-1.512547 -20.741722,-1.5784959 -20.7636599,-1.6440605 -20.7862774,-1.7092414 -20.8095722,-1.7740393 -20.8335419,-1.8384549 -20.8581837,-1.9024888 -20.8834948,-1.9661419 -20.9094721,-2.0294149 -20.9361124,-2.0923086 -20.9634124,-2.1548238 -20.9913688,-2.2169613 -21.0199778,-2.278722 -21.0492358,-2.3401066 -21.0791391,-2.4011158 -21.1096838,-2.4617505 -21.140866,-2.5220114 -21.1726818,-2.5818991 -21.2051272,-2.6414144 -21.2381981,-2.7005577 -21.2718905,-2.7593297 -21.3062005,-2.8177308 -21.3411238,-2.8757614 -21.3766566,-2.9334219 -21.4127948,-2.9907126 -21.4495345,-3.0476336 -21.4868717,-3.1041851 -21.5248025,-3.1603671 -21.563323,-3.2161795 -21.6024295,-3.2716223 -21.6421181,-3.3266953 -21.6823851,-3.381398 -21.7232269,-3.4357302 -21.76464,-3.4896913 -21.8066207,-3.5432808 -21.8491657,-3.5964979 -21.8922716,-3.6493418 -21.9359351,-3.7018117 -21.9801532,-3.7539065 -22.0249227,-3.8056252 -22.0702407,-3.8569664 -22.1161043,-3.9079288 -22.1625109,-3.958511 -22.2094577,-4.0087113 -22.2569424,-4.0585281 -22.3049626,-4.1079594 -22.3535161,-4.1570034 -22.4026009,-4.2056578 -22.4522149,-4.2539205 -22.5023565,-4.3017891 -22.553024,-4.349261 -22.604216,-4.3963337 -22.6559311,-4.4430044 -22.7081681,-4.4892702 -22.7609261,-4.535128 -22.814204,-4.5805748 -22.8680011,-4.6256073 -22.9223169,-4.6702221 -22.9771509,-4.7144156 -23.0325028,-4.7581844 -23.0883723,-4.8015245 -23.1447596,-4.8444321 -23.2016646,-4.8869034 -23.2590878,-4.928934 -23.3170295,-4.9705199 -23.3754902,-5.0116567 -23.4344708,-5.05234 -23.493972,-5.0925651 -23.5539948,-5.1323275 -23.6145405,-5.1716223 -23.6756103,-5.2104447 -23.7372056,-5.2487896 -23.7993281,-5.286652 -23.8619795,-5.3240266 -23.9251617,-5.3609081 -23.9888766,-5.3972911 -24.0531265,-5.4331702 -24.1179136,-5.4685397 -24.1832403,-5.503394 -24.2491091,-5.5377274 -24.3155226,-5.5715341 -24.3824836,-5.6048083 -24.4499948,-5.637544 -24.5180592,-5.6697354 -24.5866797,-5.7013766 -24.6558595,-5.7324614 -24.7256017,-5.7629838 -24.7959096,-5.7929379 -24.8667864,-5.8223175 -24.9382355,-5.8511167 -25.0102604,-5.8793292 -25.0828644,-5.9069491 -25.1560512,-5.9339703 -25.2298243,-5.9603868 -25.3041873,-5.9861925 -25.3791437,-6.0113815 -25.4546974,-6.0359478 -25.5308519,-6.0598855 -25.607611,-6.0831888 -25.6849783,-6.1058518 -25.7629575,-6.1278689 -25.8415523,-6.1492343 -25.9207663,-6.1699426 -26.0006032,-6.1899882 -26.0810665,-6.209366 -26.1621597,-6.2280707 -26.243886,-6.2460973 -26.326249,-6.263441 -26.4092518,-6.2800972 -26.4928974,-6.2960613 -26.5771888,-6.3113291 -26.6621289,-6.3258967 -26.7477203,-6.3397601 -26.8339656,-6.3529159 -26.920867,-6.3653608 -27.0084267,-6.3770918 -27.0966467,-6.3881061 -27.1855287,-6.3984015 -27.2750742,-6.4079758 -27.3652845,-6.4168272 -27.4561606,-6.4249544 -27.5477033,-6.4323563 -27.639913,-6.4390323 A0.2614544,0.2614544 93.9024345 1,1 -27.5029203,-6.9325822 L-27.5029203,-6.9325822 -27.417738,-6.9271076 -27.3331995,-6.9216142 -27.2493045,-6.9161018 -27.1660527,-6.9105704 -27.0834438,-6.9050198 -27.0014773,-6.89945 -26.9201525,-6.8938608 -26.8394687,-6.888252 -26.7594252,-6.8826234 -26.6800211,-6.8769747 -26.6012552,-6.8713058 -26.5231267,-6.8656163 -26.4456343,-6.8599058 -26.3687767,-6.8541742 -26.2925526,-6.8484209 -26.2169606,-6.8426456 -26.1419992,-6.8368478 -26.0676666,-6.8310272 -25.9939614,-6.8251832 -25.9208817,-6.8193154 -25.8484256,-6.8134231 -25.7765913,-6.8075059 -25.7053768,-6.8015632 -25.63478,-6.7955943 -25.5647987,-6.7895986 -25.4954309,-6.7835755 -25.4266741,-6.7775243 -25.3585261,-6.7714442 -25.2909845,-6.7653346 -25.2240468,-6.7591946 -25.0919729,-6.7468205 -24.9622836,-6.7343151 -24.834957,-6.7216716 -24.7099704,-6.7088824 -24.5873004,-6.6959397 -24.4669226,-6.6828353 -24.3488121,-6.6695606 -24.2329433,-6.6561064 -24.1192899,-6.6424634 -24.0078253,-6.6286217 -23.8985221,-6.6145711 -23.7913526,-6.600301 -23.6862886,-6.5858005 -23.5833017,-6.5710581 -23.4823629,-6.556062 -23.383443,-6.5408003 -23.2865125,-6.5252602 -23.1915415,-6.509429 -23.0985,-6.4932934 -23.0073574,-6.4768397 -22.9180834,-6.460054 -22.830647,-6.4429219 -22.7450174,-6.4254285 -22.6611633,-6.4075589 -22.5790536,-6.3892976 -22.498657,-6.3706286 -22.4199419,-6.351536 -22.3428769,-6.332003 -22.2674304,-6.3120129 -22.193571,-6.2915484 -22.121267,-6.2705918 -22.050487,-6.2491253 -21.9811994,-6.2271305 -21.913373,-6.2045889 -21.8469765,-6.1814814 -21.7819787,-6.1577887 -21.7183487,-6.1334912 -21.6560556,-6.1085689 -21.5950687,-6.0830015 -21.5353577,-6.0567684 -21.4768923,-6.0298485 -21.4196425,-6.0022207 -21.3635784,-5.9738633 -21.3086704,-5.9447545 -21.2548891,-5.9148721 -21.2022055,-5.8841937 -21.1505907,-5.8526965 -21.1000159,-5.8203577 -21.0504529,-5.7871538 -21.0018736,-5.7530615 -20.9542501,-5.7180569 -20.9075548,-5.6821161 -20.8617606,-5.6452147 -20.8168405,-5.6073284 -20.7727679,-5.5684324 -20.7295164,-5.5285019 -20.6870601,-5.4875116 -20.6453733,-5.4454362 -20.6044307,-5.4022503 -20.5642073,-5.3579281 -20.5246785,-5.3124437 -20.48582,-5.265771 -20.447608,-5.2178837 -20.410019,-5.1687555 -20.3730298,-5.1183597 -20.3366177,-5.0666698 -20.3007604,-5.0136589 -20.2654359,-4.9593002 -20.2306226,-4.9035667 -20.1962994,-4.8464315 -20.1624455,-4.7878676 -20.1290405,-4.727848 -20.0960645,-4.6663458 -20.0634979,-4.603334 -20.0313216,-4.5387859 -19.9995169,-4.4726745 -19.9680655,-4.4049733 -19.9369494,-4.3356557 -19.9061512,-4.2646952 -19.8756539,-4.1920657 -19.8454409,-4.1177411 -19.815496,-4.0416954 -19.7858035,-3.9639032 -19.7563481,-3.8843389 -19.7271149,-3.8029775 -19.6980896,-3.7197941 -19.6692581,-3.6347642 -19.6406071,-3.5478636 -19.6121233,-3.4590684 -19.5837944,-3.3683551 -19.555608,-3.2757007 -19.5275526,-3.1810826 -19.499617,-3.0844786 -19.4717904,-2.9858674 -19.4440627,-2.885228 -19.416424,-2.7825401 -19.3888652,-2.6777841 -19.3613774,-2.5709413 -19.3339524,-2.4619935 -19.3065824,-2.3509236 -19.2792602,-2.2377152 -19.251979,-2.1223528 -19.2247325,-2.004822 -19.197515,-1.8851094 -19.1703214,-1.7632023 -19.143147,-1.6390897 -19.1159875,-1.5127612 -19.0888394,-1.3842078 -19.0616997,-1.2534218 -19.0345657,-1.1203966 -19.0074356,-0.9851271 -18.9803078,-0.8476094 -18.9531816,-0.707841 -18.9531816,-0.707841 -18.5751153,1.3951524 -18.5751153,1.3951524 -18.5573039,1.4658067 -18.5386572,1.5359444 -18.519176,1.6055657 -18.4988616,1.6746713 -18.4777155,1.7432618 -18.4557398,1.8113383 -18.4329368,1.8789017 -18.4093095,1.9459533 -18.3848608,2.0124945 -18.3595942,2.0785269 -18.3335137,2.1440521 -18.3066232,2.2090719 -18.2789272,2.2735881 -18.2504304,2.3376029 -18.2211376,2.4011183 -18.1910542,2.4641364 -18.1601854,2.5266595 -18.1285369,2.5886901 -18.0961145,2.6502303 -18.0629242,2.7112827 -18.0289722,2.7718497 -17.9942648,2.8319338 -17.9588084,2.8915375 -17.9226097,2.9506634 -17.8856752,3.0093139 -17.8480117,3.0674916 -17.8096261,3.1251991 -17.7705251,3.1824386 -17.7307159,3.2392128 -17.6902052,3.295524 -17.6490002,3.3513746 -17.6071078,3.406767 -17.5645352,3.4617034 -17.5212894,3.516186 -17.4773774,3.5702172 -17.4328065,3.6237989 -17.3875836,3.6769333 -17.3417158,3.7296225 -17.2952101,3.7818683 -17.2480736,3.8336726 -17.2003133,3.8850372 -17.1519361,3.9359638 -17.1029489,3.9864542 -17.0533585,4.0365097 -17.0031717,4.0861319 -16.9523952,4.1353222 -16.9010357,4.1840817 -16.8490996,4.2324116 -16.7965935,4.2803131 -16.7435236,4.327787 -16.6898963,4.3748341 -16.6357177,4.4214552 -16.5809938,4.4676508 -16.5257305,4.5134214 -16.4699336,4.5587673 -16.4136087,4.6036887 -16.3567613,4.6481857 -16.2993969,4.6922583 -16.2415208,4.7359063 -16.183138,4.7791293 -16.1242537,4.8219271 -16.0648726,4.8642991 -16.0049995,4.9062446 -15.944639,4.9477629 -15.8837957,4.988853 -15.8224739,5.029514 -15.7606777,5.0697447 -15.6984113,5.1095438 -15.6356786,5.1489101 -15.5724833,5.1878419 -15.5088292,5.2263377 -15.4447196,5.2643958 -15.380158,5.3020143 -15.3151476,5.3391912 -15.2496914,5.3759244 -15.1837924,5.4122118 -15.1174533,5.4480509 -15.0506768,5.4834395 -14.9834652,5.5183748 -14.915821,5.5528542 -14.8477462,5.5868751 -14.779243,5.6204344 -14.7103131,5.6535291 -14.6409584,5.6861564 -14.5711804,5.7183129 -14.5009806,5.7499954 -14.4303605,5.7812007 -14.3593212,5.8119253 -14.2878638,5.8421658 -14.2159893,5.8719187 -14.1436986,5.9011804 -14.0709925,5.9299472 -13.9978715,5.9582155 -13.9243363,5.9859815 -13.8503872,6.0132416 -13.7760246,6.0399918 -13.7012487,6.0662284 -13.6260597,6.0919476 -13.5504575,6.1171454 -13.4744422,6.141818 -13.3980136,6.1659615 -13.3211715,6.189572 -13.2439155,6.2126456 -13.1662453,6.2351785 -13.0881605,6.2571666 -13.0096604,6.2786063 -12.9307446,6.2994936 -12.8514123,6.3198248 -12.771663,6.3395962 -12.6914958,6.3588042 -12.61091,6.3774452 -12.5299049,6.3955157 -12.4484797,6.4130124 -12.3666335,6.429932 -12.2843656,6.4462714 -12.2016751,6.4620276 -12.1185613,6.4771978 -12.0350234,6.4917792 -11.9510607,6.5057694 -11.8666724,6.519166 -11.7818579,6.531967 -11.6966166,6.5441702 -11.6109479,6.5557742 -11.5248512,6.5667772 -11.4383263,6.5771782 -11.3513726,6.586976 -11.26399,6.5961699 -11.1761782,6.6047594 A0.2412625,0.2412625 290.2992626 0,1 -11.2586416,7.0722973z" transform="matrix(1,0,0,-1,27.8835734,7.0735628)" stroke="none" fill="#ffffff" /></svg>