<svg width="1080" height="1350" viewBox="0 0 1080 1350" fill="none" xmlns="http://www.w3.org/2000/svg">
<rect width="1080" height="1350" fill="white"/>
<path d="M201 928.344L231.594 925.576L258.767 922.689L282.555 919.733L304.641 916.519L325.025 913.081L342.024 909.764L357.32 906.361L372.6 902.442L386.195 898.455L398.089 894.484L408.281 890.651L418.474 886.337L426.964 882.315L435.472 877.812L443.963 872.776L450.752 868.273L457.558 863.272L464.347 857.703L471.136 851.447L476.241 846.239L481.328 840.481L486.433 834.139L491.538 827.075L496.625 819.169L501.73 810.265L506.818 800.159L511.922 788.575L515.308 779.895L518.711 770.27L522.114 759.562L525.518 747.565L528.903 734.056L532.307 718.708L535.71 701.125L539.096 680.775L542.499 659.016L545.902 640.126L549.288 623.712L552.691 609.326L556.094 596.608L559.497 585.281L562.883 575.141L567.988 561.769L573.075 550.184L578.18 540.078L583.268 531.175L588.372 523.269L593.477 516.205L598.564 509.862L603.669 504.122L610.458 497.264L617.247 491.197L624.054 485.783L630.843 480.919L639.333 475.487L647.841 470.675L656.332 466.378L666.524 461.789L676.716 457.716L688.61 453.522L700.504 449.827L714.099 446.097L729.379 442.419L746.377 438.861L765.06 435.475L785.444 432.278L807.548 429.287L833.019 426.331L861.912 423.478L878.893 422" stroke="#00B9E7" stroke-width="13" stroke-linecap="round" stroke-linejoin="round"/>
<path d="M201 928.344L226.489 924.408L250.277 920.248L270.661 916.244L289.361 912.136L308.044 907.53L325.025 902.837L340.322 898.145L353.917 893.522L367.513 888.4L379.406 883.433L391.283 877.967L401.492 872.811L411.685 867.156L421.877 860.917L430.367 855.228L438.858 848.989L447.366 842.148L455.857 834.603L462.646 827.986L469.452 820.784L476.241 812.895L483.03 804.25L489.836 794.694L496.625 784.106L501.73 775.375L506.818 765.887L511.922 755.489L517.01 744.094L522.114 731.53L527.202 717.59L532.307 702.087L537.411 684.694L545.902 653.842L550.989 637.72L556.094 623.3L561.182 610.306L566.286 598.533L571.374 587.825L576.479 578.045L581.583 569.056L588.372 558.194L595.161 548.397L601.968 539.528L608.757 531.467L615.563 524.111L622.352 517.356L630.843 509.656L639.333 502.678L647.841 496.336L656.332 490.527L666.524 484.184L676.716 478.444L686.908 473.202L698.802 467.65L710.696 462.631L724.291 457.441L737.886 452.748L753.166 448.005L768.463 443.708L785.444 439.411L804.144 435.183L824.529 431.058L846.615 427.07L870.402 423.272L878.893 422" stroke="#00B9E7" stroke-opacity="0.75" stroke-width="13" stroke-linecap="round" stroke-linejoin="round"/>
<path d="M201 928.344L223.086 923.325L243.488 918.22L262.17 913.133L280.853 907.547L297.852 901.995L314.833 895.928L330.13 889.964L343.725 884.206L357.32 877.95L370.899 871.161L382.792 864.698L394.686 857.686L404.878 851.206L415.071 844.211L425.263 836.648L435.472 828.467L443.963 821.111L452.453 813.187L460.944 804.645L469.452 795.415L477.942 785.412L484.732 776.767L491.538 767.503L498.327 757.534L505.116 746.792L511.922 735.173L518.711 722.558L525.518 708.825L532.307 693.82L539.096 677.337L545.902 660.511L552.691 645.145L559.497 631.12L566.286 618.23L573.075 606.37L579.882 595.422L586.671 585.264L593.477 575.828L601.968 564.931L610.458 554.928L618.949 545.698L627.457 537.156L635.947 529.233L644.438 521.877L654.63 513.695L664.822 506.133L675.015 499.137L685.207 492.658L697.101 485.645L708.994 479.183L722.59 472.394L736.185 466.137L749.78 460.38L765.06 454.416L780.357 448.933L797.338 443.33L816.038 437.709L834.721 432.57L855.105 427.431L877.191 422.378L878.893 422" stroke="#00B9E7" stroke-opacity="0.5" stroke-width="13" stroke-linecap="round" stroke-linejoin="round"/>
<path d="M201 928.344L221.402 921.967L241.786 915.092L260.469 908.32L279.152 901.033L296.15 893.9L313.131 886.234L328.428 878.826L343.725 870.903L357.32 863.358L370.899 855.297L384.494 846.669L396.388 838.59L408.281 829.997L420.175 820.801L432.069 810.97L442.261 801.981L452.453 792.408L462.646 782.181L472.838 771.267L483.03 759.58L491.538 749.181L500.028 738.112L508.519 726.339L517.01 713.775L525.518 700.317L534.008 685.897L554.393 650.026L562.883 636.569L571.374 624.005L579.882 612.231L588.372 601.162L596.863 590.764L607.055 579.076L617.247 568.162L627.457 557.936L637.649 548.362L647.841 539.373L659.735 529.542L671.629 520.347L683.522 511.753L695.399 503.675L708.994 495.047L722.59 486.986L736.185 479.441L751.482 471.517L766.761 464.109L783.76 456.444L800.741 449.311L817.74 442.659L836.423 435.836L856.807 428.927L877.191 422.516L878.893 422" stroke="#00B9E7" stroke-opacity="0.25" stroke-width="13" stroke-linecap="round" stroke-linejoin="round"/>
<path d="M201 928.344L221.402 919.904L241.786 910.967L260.469 902.322L279.152 893.161L297.852 883.467L314.833 874.151L331.831 864.32L348.813 853.904L364.11 844.005L379.406 833.572L394.686 822.537L408.281 812.19L421.877 801.294L435.472 789.812L449.05 777.695L462.646 764.873L474.539 753.031L486.433 740.553L498.327 727.405L510.221 713.534L522.114 698.856L532.307 685.57L561.182 647.208L573.075 632.77L584.969 619.106L596.863 606.164L608.757 593.875L620.65 582.205L634.246 569.555L647.841 557.592L661.419 546.266L675.015 535.523L690.311 524.059L705.608 513.231L720.888 502.97L736.185 493.242L753.166 483.016L770.165 473.339L787.146 464.178L805.846 454.639L824.529 445.616L844.913 436.334L865.298 427.569L878.893 422" stroke="#00B9E7" stroke-opacity="0.1" stroke-width="13" stroke-linecap="round" stroke-linejoin="round"/>
</svg>
