<?xml version="1.0" encoding="utf-8"?>
<!-- Generator: Fusion 360, Shaper Origin Export Add-In, Version 1.9.0  -->
<svg xmlns="http://www.w3.org/2000/svg" xmlns:xlink="http://www.w3.org/1999/xlink" xmlns:shaper="http://www.shapertools.com/namespaces/shaper" shaper:fusionaddin="version:1.9.0" width="17.916253cm" height="14.0183124cm" version="1.1" x="0cm" y="0cm" viewBox="0 0 17.916253 14.0183124" enable-background="new 0 0 17.916253 14.0183124" xml:space="preserve"><path d="M-20.6762433,-0.6631984 L-20.6762433,-0.6631984 -20.6932481,-0.730665 -20.7110295,-0.7975773 -20.7295868,-0.8639355 -20.7489189,-0.9297403 -20.7690244,-0.9949927 -20.7899016,-1.0596936 -20.8115483,-1.1238444 -20.833962,-1.1874465 -20.8571402,-1.2505016 -20.8810796,-1.3130115 -20.9057771,-1.3749783 -20.931229,-1.4364039 -20.9574315,-1.4972908 -20.9843806,-1.5576413 -21.012072,-1.6174579 -21.0405011,-1.6767433 -21.0696634,-1.7355003 -21.099554,-1.7937315 -21.1301678,-1.85144 -21.1614996,-1.9086288 -21.1935443,-1.9653008 -21.2262964,-2.0214591 -21.2597503,-2.0771069 -21.2939005,-2.1322474 -21.3287413,-2.1868836 -21.364267,-2.2410188 -21.4004717,-2.2946561 -21.4373496,-2.3477988 -21.474895,-2.40045 -21.5131018,-2.4526128 -21.5519643,-2.5042903 -21.5914766,-2.5554857 -21.6316328,-2.606202 -21.6724269,-2.6564423 -21.7138531,-2.7062094 -21.7559055,-2.7555065 -21.7985784,-2.8043362 -21.8418658,-2.8527016 -21.8857621,-2.9006054 -21.9302615,-2.9480503 -21.9753583,-2.995039 -22.021047,-3.0415741 -22.0673218,-3.087658 -22.1141775,-3.1332933 -22.1616085,-3.1784822 -22.2096095,-3.2232271 -22.2581753,-3.2675301 -22.3073008,-3.3113933 -22.3569808,-3.3548187 -22.4072105,-3.3978081 -22.457985,-3.4403633 -22.5092996,-3.482486 -22.5611498,-3.5241777 -22.613531,-3.5654398 -22.666439,-3.6062736 -22.7198696,-3.6466803 -22.7738187,-3.6866609 -22.8282825,-3.7262164 -22.883257,-3.7653476 -22.9387386,-3.8040552 -22.9947239,-3.8423397 -23.0512094,-3.8802017 -23.1081919,-3.9176415 -23.1656682,-3.9546593 -23.2236354,-3.9912551 -23.2820906,-4.0274291 -23.3410311,-4.063181 -23.4004544,-4.0985107 -23.4603581,-4.1334177 -23.5207398,-4.1679015 -23.5815975,-4.2019615 -23.6429291,-4.2355971 -23.7047328,-4.2688073 -23.7670069,-4.3015912 -23.8297498,-4.3339477 -23.8929602,-4.3658756 -23.9566367,-4.3973736 -24.0207782,-4.4284402 -24.0853838,-4.4590739 -24.1504527,-4.489273 -24.2159841,-4.5190357 -24.2819775,-4.5483601 -24.3484326,-4.5772442 -24.415349,-4.6056859 -24.4827266,-4.6336831 -24.5505653,-4.6612335 -24.6188652,-4.6883347 -24.6876266,-4.7149844 -24.7568497,-4.7411799 -24.8265349,-4.7669187 -24.8966829,-4.7921982 -24.9672941,-4.8170156 -25.0383694,-4.8413683 -25.1099095,-4.8652533 -25.1819154,-4.8886678 -25.254388,-4.9116089 -25.3273284,-4.9340737 -25.4007378,-4.9560591 -25.4746173,-4.9775622 -25.5489684,-4.9985798 -25.6237922,-5.019109 -25.6990903,-5.0391466 -25.7748641,-5.0586895 -25.8511153,-5.0777346 -25.9278453,-5.0962788 -26.0050558,-5.114319 -26.0827484,-5.131852 -26.160925,-5.1488749 -26.239587,-5.1653846 -26.3187363,-5.181378 -26.3983746,-5.1968524 -26.4785035,-5.2118048 -26.5591247,-5.2262325 -26.6402399,-5.2401327 -26.7218506,-5.253503 -26.8039584,-5.2663407 -26.8865648,-5.2786435 -26.9696712,-5.2904093 -27.053279,-5.3016358 -27.1373894,-5.3123212 -27.2220037,-5.3224636 -27.3071228,-5.3320615 -27.3927478,-5.3411133 -27.4788796,-5.3496177 -27.5655188,-5.3575739 -27.652666,-5.3649808 -27.7403217,-5.3718379 -27.8284862,-5.3781446 A0.8022283,0.8022283 110.0010139 0,1 -27.5029203,-6.9325822 L-27.5029203,-6.9325822 -27.4183103,-6.9271467 -27.3343361,-6.9216969 -27.2509977,-6.9162327 -27.1682946,-6.910754 -27.0862265,-6.9052607 -27.004793,-6.8997526 -26.9239934,-6.8942297 -26.8438269,-6.8886917 -26.764293,-6.8831384 -26.6853905,-6.8775696 -26.6071186,-6.871985 -26.5294763,-6.8663842 -26.4524623,-6.8607671 -26.3760754,-6.8551331 -26.3003143,-6.849482 -26.2251775,-6.8438134 -26.1506636,-6.8381267 -26.076771,-6.8324215 -26.0034981,-6.8266974 -25.930843,-6.8209538 -25.8588041,-6.8151902 -25.7873793,-6.809406 -25.7165668,-6.8036006 -25.6463645,-6.7977733 -25.5767704,-6.7919236 -25.5077821,-6.7860507 -25.4393976,-6.7801539 -25.3716144,-6.7742326 -25.2378428,-6.7623131 -25.1064476,-6.7502857 -24.9774081,-6.7381437 -24.8507029,-6.7258798 -24.7263096,-6.7134864 -24.604205,-6.7009554 -24.4843651,-6.6882785 -24.3667655,-6.6754467 -24.2513808,-6.6624507 -24.1381853,-6.649281 -24.0271524,-6.6359273 -23.9182554,-6.6223794 -23.8114669,-6.6086263 -23.7067592,-6.5946567 -23.6041042,-6.5804591 -23.5034733,-6.5660214 -23.4048379,-6.5513312 -23.3081688,-6.5363758 -23.2134366,-6.5211419 -23.1206116,-6.5056161 -23.029664,-6.4897844 -22.9405635,-6.4736325 -22.8532799,-6.4571457 -22.7677827,-6.4403091 -22.6840413,-6.4231072 -22.6020248,-6.4055243 -22.5217023,-6.3875442 -22.4430431,-6.3691505 -22.3660159,-6.3503263 -22.2905898,-6.3310544 -22.2167337,-6.3113172 -22.1444165,-6.291097 -22.0736073,-6.2703753 -22.0042751,-6.2491337 -21.936389,-6.2273531 -21.8699182,-6.2050143 -21.8048322,-6.1820977 -21.7411002,-6.1585833 -21.6786922,-6.1344507 -21.6175779,-6.1096794 -21.5577273,-6.0842484 -21.4991107,-6.0581364 -21.4416986,-6.0313219 -21.3854617,-6.003783 -21.3303707,-5.9754974 -21.2763969,-5.9464427 -21.2235115,-5.9165962 -21.1716862,-5.8859348 -21.1208929,-5.8544352 -21.0711036,-5.8220739 -21.0222908,-5.788827 -20.974427,-5.7546704 -20.9274852,-5.7195799 -20.8814387,-5.6835309 -20.8362609,-5.6464985 -20.7919258,-5.6084579 -20.7484074,-5.5693837 -20.7056803,-5.5292506 -20.6637192,-5.4880329 -20.6224992,-5.4457048 -20.5819959,-5.4022402 -20.5421851,-5.357613 -20.503043,-5.3117968 -20.4645461,-5.264765 -20.4266713,-5.2164908 -20.3893961,-5.1669476 -20.352698,-5.1161083 -20.3165552,-5.0639458 -20.2809461,-5.010433 -20.2458496,-4.9555427 -20.2112449,-4.8992476 -20.1771117,-4.8415206 -20.1434299,-4.7823342 -20.1101801,-4.7216614 -20.0773431,-4.659475 -20.0449,-4.5957477 -20.0128327,-4.5304526 -19.9811231,-4.4635628 -19.9497537,-4.3950514 -19.9187075,-4.3248918 -19.8879678,-4.2530574 -19.8575182,-4.1795221 -19.8273431,-4.1042597 -19.7974269,-4.0272443 -19.7677548,-3.9484502 -19.7383122,-3.8678523 -19.709085,-3.7854253 -19.6800596,-3.7011446 -19.6512227,-3.6149857 -19.6225617,-3.5269246 -19.5940642,-3.4369375 -19.5657184,-3.3450012 -19.5375129,-3.251093 -19.5094367,-3.1551906 -19.4814795,-3.0572722 -19.4536311,-2.9573169 -19.4258822,-2.8553042 -19.3982236,-2.7512143 -19.3706468,-2.6450283 -19.3431437,-2.536728 -19.3157068,-2.426296 -19.288329,-2.3137158 -19.2610037,-2.1989719 -19.2337248,-2.0820497 -19.2064867,-1.9629356 -19.1792844,-1.8416171 -19.1521133,-1.7180828 -19.1249694,-1.5923223 -19.0978491,-1.4643267 -19.0707495,-1.3340881 -19.0436681,-1.2015998 -19.016603,-1.0668568 -18.9895527,-0.929855 -18.9625165,-0.7905922 -18.9625165,-0.7905922 -18.499484,0.8417118 -18.499484,0.8417118 -18.4814393,0.9130521 -18.4624706,0.9837069 -18.442579,1.0536769 -18.4217658,1.122963 -18.4000329,1.1915665 -18.3773828,1.2594889 -18.3538183,1.3267321 -18.3293427,1.3932982 -18.3039598,1.4591896 -18.2776737,1.5244091 -18.250489,1.5889595 -18.2224106,1.6528439 -18.1934437,1.7160658 -18.163594,1.7786287 -18.1328674,1.8405363 -18.1012702,1.9017927 -18.0688088,1.962402 -18.0354901,2.0223683 -18.0013212,2.0816962 -17.9663092,2.1403901 -17.9304617,2.1984548 -17.8937863,2.2558949 -17.856291,2.3127154 -17.8179838,2.3689212 -17.7788727,2.4245173 -17.7389662,2.4795086 -17.6982726,2.5339004 -17.6568004,2.5876977 -17.6145582,2.6409057 -17.5715546,2.6935296 -17.5277985,2.7455744 -17.4832984,2.7970454 -17.4380634,2.8479478 -17.3921023,2.8982867 -17.345424,2.9480673 -17.2980374,2.9972948 -17.2499516,3.0459743 -17.2011755,3.0941109 -17.1517181,3.1417096 -17.1015885,3.1887755 -17.0507955,3.2353136 -16.9993482,3.2813288 -16.9472555,3.326826 -16.8945262,3.3718099 -16.8411693,3.4162855 -16.7871935,3.4602572 -16.7326076,3.5037298 -16.6774203,3.5467077 -16.6216401,3.5891954 -16.5652756,3.6311972 -16.5083353,3.6727173 -16.4508274,3.7137599 -16.3927602,3.7543289 -16.3341417,3.7944283 -16.2749801,3.8340618 -16.2152831,3.8732331 -16.1550587,3.9119458 -16.0943143,3.9502033 -16.0330576,3.9880089 -15.9712959,4.0253657 -15.9090366,4.062277 -15.8462868,4.0987456 -15.7830536,4.1347743 -15.7193439,4.170366 -15.6551644,4.2055231 -15.5905219,4.2402482 -15.5254228,4.2745436 -15.4598734,4.3084116 -15.3938801,4.3418541 -15.327449,4.3748733 -15.1932968,4.4396486 -15.0574627,4.502751 -14.9199904,4.5641914 -14.7809209,4.6239791 -14.6402929,4.6821211 -14.4981427,4.7386224 -14.3545039,4.793486 -14.209408,4.8467132 -14.0628842,4.8983036 -13.9149591,4.9482548 -13.7656575,4.9965634 -13.6150018,5.0432243 -13.4630124,5.088231 -13.3097077,5.131576 -13.1551039,5.1732507 -12.9992155,5.2132454 -12.8420549,5.2515494 -12.6836329,5.2881516 -12.5239585,5.3230399 -12.363039,5.3562023 -12.2008806,5.3876265 -12.0374878,5.4173004 -11.8728645,5.4452124 -11.7070131,5.4713515 -11.5399356,5.4957079 -11.371633,5.5182727 -11.202106,5.5390386 -11.0313547,5.558 -10.8593791,5.5751531 A0.8022283,0.8022283 298.5104663 0,1 -11.2373315,7.082308 L-11.2373315,7.082308 -11.3266665,7.0828203 -11.4153321,7.083247 -11.5033283,7.083588 -11.5906555,7.0838433 -11.6773142,7.0840128 -11.7633048,7.0840964 -11.8486279,7.0840941 -11.9332843,7.0840056 -12.0172749,7.083831 -12.1006005,7.08357 -12.1832622,7.0832225 -12.2652611,7.0827883 -12.3465984,7.0822672 -12.4272754,7.0816589 -12.5072936,7.0809632 -12.5866543,7.08018 -12.6653592,7.0793087 -12.7434099,7.0783493 -12.8208082,7.0773013 -12.8975559,7.0761645 -12.9736549,7.0749384 -13.0491072,7.0736227 -13.1239149,7.0722171 -13.19808,7.070721 -13.2716048,7.0691341 -13.3444915,7.0674559 -13.4167426,7.065686 -13.4883605,7.0638238 -13.5593475,7.0618688 -13.6297064,7.0598205 -13.6994397,7.0576784 -13.76855,7.0554419 -13.8370402,7.0531103 -13.904913,7.0506832 -13.9721713,7.0481598 -14.038818,7.0455394 -14.104856,7.0428215 -14.1702884,7.0400054 -14.2351183,7.0370902 -14.2993487,7.0340753 -14.3629828,7.03096 -14.4260239,7.0277434 -14.55034,7.0210031 -14.6723234,7.013848 -14.7920014,7.006271 -14.9094016,6.9982648 -15.0245522,6.9898216 -15.1374821,6.9809336 -15.2482204,6.9715922 -15.3567965,6.9617887 -15.4632403,6.951514 -15.5675823,6.9407587 -15.6698528,6.929513 -15.7700829,6.9177666 -15.8683036,6.9055091 -15.9645464,6.8927296 -16.058843,6.8794169 -16.1512252,6.8655593 -16.2417249,6.8511449 -16.3303745,6.8361614 -16.4172062,6.8205962 -16.5022524,6.8044362 -16.5855457,6.787668 -16.6671186,6.7702779 -16.7470038,6.7522517 -16.8252337,6.7335751 -16.9018411,6.7142332 -16.9768585,6.6942108 -17.0503183,6.6734924 -17.1222531,6.652062 -17.1926951,6.6299035 -17.2616764,6.6070001 -17.3292292,6.5833349 -17.3953851,6.5588905 -17.4601759,6.5336493 -17.5236329,6.5075931 -17.5857874,6.4807035 -17.6466704,6.4529619 -17.7063127,6.424349 -17.7647447,6.3948456 -17.8219969,6.3644319 -17.8780991,6.3330878 -17.9330813,6.3007929 -17.986973,6.2675267 -18.0398033,6.2332681 -18.0916013,6.1979959 -18.1423955,6.1616886 -18.1922145,6.1243243 -18.2410861,6.085881 -18.2890383,6.0463363 -18.3360983,6.0056675 -18.3822934,5.9638518 -18.4276502,5.920866 -18.4721951,5.8766869 -18.5159542,5.8312907 -18.5589532,5.7846537 -18.6012174,5.7367517 -18.6427717,5.6875604 -18.6836407,5.6370555 -18.7238484,5.5852121 -18.7634188,5.5320053 -18.802375,5.4774102 -18.84074,5.4214015 -18.8785365,5.3639539 -18.9157865,5.3050419 -18.9525117,5.2446401 -18.9887334,5.1827228 -19.0244725,5.1192646 -19.0597496,5.0542396 -19.0945845,4.9876224 -19.1289969,4.9193873 -19.163006,4.8495087 -19.1966305,4.7779611 -19.2298888,4.7047192 -19.2627986,4.6297575 -19.2953775,4.5530509 -19.3276423,4.4745743 -19.3596097,4.3943028 -19.3912957,4.3122117 -19.4227159,4.2282766 -19.4538855,4.1424731 -19.4848192,4.0547773 -19.5155312,3.9651653 -19.5460354,3.8736137 -19.5763449,3.7800993 -19.6064727,3.6845993 -19.6364311,3.5870913 -19.666232,3.4875533 -19.6958868,3.3859637 -19.7254063,3.2823016 -19.7548011,3.1765466 -19.7840809,3.0686788 -19.8132552,2.9586792 -19.842333,2.8465292 -19.8713226,2.7322112 -19.900232,2.6157083 -19.9290684,2.4970044 -19.9578388,2.3760845 -19.9865494,2.2529342 -20.0152062,2.1275403 -20.0438143,1.9998906 -20.0723785,1.869974 -20.100903,1.7377803 -20.1293915,1.6033008 -20.157847,1.4665277 -20.1862722,1.3274546 -20.2146689,1.1860764 -20.2430388,1.0423893 -20.2713826,0.8963908 -20.2713826,0.8963908 -20.6762433,-0.6631984z" transform="matrix(1,0,0,-1,28.3563229,7.0840964)" stroke="none" fill="#ffffff" /></svg>