<?xml version="1.0" encoding="utf-8"?>
<!-- Generator: Fusion 360, Shaper Origin Export Add-In, Version 1.9.0  -->
<svg xmlns="http://www.w3.org/2000/svg" xmlns:xlink="http://www.w3.org/1999/xlink" xmlns:shaper="http://www.shapertools.com/namespaces/shaper" shaper:fusionaddin="version:1.9.0" width="15.8049168cm" height="14.0132701cm" version="1.1" x="0cm" y="0cm" viewBox="0 0 15.8049168 14.0132701" enable-background="new 0 0 15.8049168 14.0132701" xml:space="preserve"><path d="M-1.4362455,-0.5162241 L-1.4362455,-0.5162241 -1.4507044,-0.5736234 -1.4658319,-0.6306515 -1.4816272,-0.6873087 -1.4980894,-0.7435955 -1.5152171,-0.7995125 -1.5330087,-0.8550603 -1.5514622,-0.9102397 -1.5705752,-0.9650519 -1.5903451,-1.0194978 -1.610769,-1.0735786 -1.6318439,-1.1272957 -1.6535661,-1.1806504 -1.6759322,-1.2336442 -1.6989382,-1.2862787 -1.7225799,-1.3385556 -1.746853,-1.3904766 -1.7717531,-1.4420435 -1.7972754,-1.493258 -1.8234149,-1.5441222 -1.8501668,-1.594638 -1.8775258,-1.6448072 -1.9054866,-1.694632 -1.9340438,-1.7441144 -1.9631918,-1.7932564 -1.9929251,-1.8420601 -2.0232379,-1.8905276 -2.0541245,-1.9386608 -2.085579,-1.9864619 -2.1175956,-2.0339329 -2.1501684,-2.0810759 -2.1832913,-2.1278928 -2.2169584,-2.1743856 -2.2511637,-2.2205563 -2.2859011,-2.2664068 -2.3211646,-2.3119391 -2.356948,-2.3571551 -2.4300506,-2.4466452 -2.5051602,-2.5348916 -2.5822285,-2.6219078 -2.6612074,-2.7077066 -2.7420496,-2.7923001 -2.8247082,-2.8756992 -2.9091375,-2.9579138 -2.9952928,-3.0389528 -3.0831307,-3.1188236 -3.1726093,-3.1975325 -3.2636879,-3.2750843 -3.3563274,-3.3514828 -3.4504905,-3.4267302 -3.5461411,-3.5008276 -3.6432449,-3.5737746 -3.7417691,-3.6455698 -3.8416827,-3.7162101 -3.9429563,-3.7856915 -4.0455625,-3.8540085 -4.1494754,-3.9211543 -4.2546711,-3.9871208 -4.3611274,-4.0518988 -4.4688242,-4.1154776 -4.577743,-4.1778456 -4.6878669,-4.2389899 -4.7991811,-4.298897 -4.911672,-4.3575521 -5.0253278,-4.4149402 -5.1401381,-4.4710452 -5.2560941,-4.5258506 -5.3731881,-4.5793394 -5.4914142,-4.6314944 -5.6107672,-4.6822979 -5.7312437,-4.7317321 -5.8528411,-4.7797792 -5.9755579,-4.8264216 -6.0993935,-4.8716418 -6.2243483,-4.9154231 -6.3504228,-4.9577495 -6.4776185,-4.998606 -6.6059369,-5.0379788 -6.7353797,-5.0758558 -6.8659488,-5.1122261 -6.9976459,-5.1470813 -7.1304723,-5.1804146 -7.2644291,-5.212222 A0.8022283,0.8022283 111.558527 0,1 -6.9248267,-6.7593037 L-6.9248267,-6.7593037 -6.8416991,-6.7546163 -6.7592076,-6.7498932 -6.677352,-6.7451345 -6.5961319,-6.7403401 -6.5155469,-6.7355099 -6.4355967,-6.7306438 -6.3562804,-6.7257417 -6.2775975,-6.7208034 -6.1995472,-6.7158287 -6.1221285,-6.7108175 -6.0453406,-6.7057694 -5.9691822,-6.7006844 -5.8936524,-6.695562 -5.8187497,-6.6904021 -5.7444729,-6.6852043 -5.6708206,-6.6799683 -5.5977912,-6.6746936 -5.5253831,-6.66938 -5.4535948,-6.664027 -5.3824244,-6.6586342 -5.3118702,-6.6532011 -5.2419302,-6.6477273 -5.1726024,-6.6422123 -5.1038849,-6.6366555 -5.0357754,-6.6310565 -4.9682719,-6.6254145 -4.901372,-6.6197292 -4.8350735,-6.6139997 -4.7042709,-6.6024062 -4.5758443,-6.5906285 -4.449773,-6.578661 -4.3260352,-6.5664977 -4.2046085,-6.554132 -4.0854696,-6.5415573 -3.9685943,-6.5287664 -3.8539579,-6.5157518 -3.741535,-6.5025057 -3.6312995,-6.4890197 -3.5232248,-6.4752855 -3.417284,-6.461294 -3.3134493,-6.4470359 -3.211693,-6.4325017 -3.1119867,-6.4176813 -3.0143016,-6.4025645 -2.9186087,-6.3871404 -2.8248787,-6.3713981 -2.733082,-6.3553263 -2.6431885,-6.3389131 -2.5551682,-6.3221465 -2.4689906,-6.305014 -2.3846252,-6.287503 -2.3020411,-6.2696003 -2.2212074,-6.2512924 -2.1420931,-6.2325656 -2.064667,-6.2134058 -1.9888978,-6.1937985 -1.9147541,-6.1737288 -1.8422047,-6.1531818 -1.771218,-6.1321418 -1.7017628,-6.1105932 -1.6338077,-6.0885197 -1.5673214,-6.065905 -1.5022726,-6.0427323 -1.4386302,-6.0189845 -1.3763632,-5.994644 -1.3154407,-5.9696933 -1.2558321,-5.9441141 -1.1975067,-5.9178882 -1.1404343,-5.8909968 -1.0845848,-5.8634208 -1.029928,-5.835141 -0.9764345,-5.8061378 -0.9240745,-5.7763913 -0.8728188,-5.7458813 -0.8226384,-5.7145874 -0.7735044,-5.6824888 -0.7253882,-5.6495645 -0.6782616,-5.6157934 -0.6320964,-5.581154 -0.5868649,-5.5456244 -0.5425396,-5.5091827 -0.4990932,-5.4718068 -0.4564989,-5.4334742 -0.4147299,-5.3941622 -0.3737601,-5.3538479 -0.3335634,-5.3125084 -0.2941141,-5.2701203 -0.2553869,-5.22666 -0.2173568,-5.1821041 -0.1799992,-5.1364285 -0.1432898,-5.0896094 -0.1072046,-5.0416224 -0.0717202,-4.9924432 -0.0368133,-4.9420473 -0.0024611,-4.8904101 0.0313587,-4.8375068 0.0646682,-4.7833126 0.0974891,-4.7278026 0.1298425,-4.6709518 0.1617494,-4.6127353 0.1932301,-4.5531281 0.2243048,-4.4921051 0.2549931,-4.4296416 0.2853142,-4.3657125 0.315287,-4.300293 0.3449299,-4.2333583 0.3742608,-4.1648839 0.4032974,-4.0948451 0.4320568,-4.0232177 0.4605557,-3.9499773 0.4888104,-3.8750999 0.5168368,-3.7985618 0.5446503,-3.7203392 0.5722659,-3.6404088 0.599698,-3.5587475 0.6269609,-3.4753324 0.6540682,-3.390141 0.6810329,-3.303151 0.7078679,-3.2143405 0.7345854,-3.1236881 0.7611973,-3.0311726 0.7877147,-2.9367735 0.8141487,-2.8404707 0.8405095,-2.7422447 0.866807,-2.6420766 0.8930506,-2.5399481 0.9192493,-2.4358415 0.9454114,-2.3297401 0.9715447,-2.2216277 0.9976568,-2.1114891 1.0237543,-1.9993098 1.0498438,-1.8850763 1.0759309,-1.768776 1.102021,-1.6503972 1.1281189,-1.5299294 1.1542287,-1.407363 1.1803542,-1.2826896 1.2064985,-1.1559019 1.2326641,-1.0269938 1.2588531,-0.8959604 1.285067,-0.7627982 1.3113066,-0.6275049 1.3113066,-0.6275049 1.6974073,1.0083806 1.6974073,1.0083806 1.7118663,1.0657798 1.7269937,1.1228079 1.7427891,1.1794652 1.7592513,1.235752 1.776379,1.2916689 1.7941706,1.3472167 1.812624,1.4023962 1.831737,1.4572083 1.8515069,1.5116542 1.8719309,1.5657351 1.8930057,1.6194521 1.914728,1.6728068 1.9370941,1.7258007 1.9601,1.7784352 1.9837417,1.8307121 2.0080149,1.8826331 2.032915,1.9341999 2.0584372,1.9854145 2.0845768,2.0362787 2.1113287,2.0867944 2.1386876,2.1369637 2.1666484,2.1867885 2.1952056,2.2362709 2.2243537,2.2854129 2.254087,2.3342166 2.2843998,2.382684 2.3152864,2.4308173 2.3467409,2.4786184 2.3787575,2.5260894 2.4113302,2.5732323 2.4444531,2.6200492 2.4781203,2.666542 2.5123255,2.7127127 2.5470629,2.7585633 2.5823264,2.8040956 2.6181099,2.8493115 2.6912124,2.9388017 2.766322,3.027048 2.8433903,3.1140642 2.9223693,3.1998631 3.0032114,3.2844566 3.08587,3.3678557 3.1702993,3.4500703 3.2564547,3.5311093 3.3442926,3.6109801 3.4337711,3.6896889 3.5248497,3.7672408 3.6174893,3.8436393 3.7116524,3.9188867 3.807303,3.9929841 3.9044067,4.0659311 4.0029309,4.1377262 4.1028445,4.2083666 4.2041182,4.277848 4.3067244,4.346165 4.4106373,4.4133108 4.5158329,4.4792773 4.6222893,4.5440553 4.7299861,4.6076341 4.8389048,4.670002 4.9490288,4.7311464 5.0603429,4.7910534 5.1728338,4.8497086 5.2864896,4.9070967 5.4013,4.9632016 5.5172559,5.018007 5.63435,5.0714959 5.752576,5.1236508 5.8719291,5.1744543 5.9924056,5.2238885 6.1140029,5.2719357 6.2367197,5.3185781 6.3605554,5.3637983 6.4855101,5.4075796 6.6115847,5.449906 6.7387804,5.4907625 6.8670987,5.5301353 6.9965416,5.5680122 7.1271107,5.6043826 7.2588077,5.6392377 7.3916342,5.6725711 7.525591,5.7043785 A0.8022283,0.8022283 291.558527 0,1 7.1859885,7.2514601 L7.1859885,7.2514601 7.102861,7.2467727 7.0203695,7.2420497 6.9385138,7.237291 6.8572937,7.2324966 6.7767088,7.2276664 6.6967585,7.2228003 6.6174423,7.2178982 6.5387594,7.2129598 6.460709,7.2079852 6.3832904,7.2029739 6.3065024,7.1979259 6.2303441,7.1928408 6.1548142,7.1877185 6.0799115,7.1825586 6.0056347,7.1773608 5.9319824,7.1721247 5.858953,7.1668501 5.786545,7.1615365 5.7147567,7.1561835 5.6435863,7.1507907 5.573032,7.1453576 5.503092,7.1398838 5.4337642,7.1343688 5.3650467,7.128812 5.2969373,7.1232129 5.2294337,7.117571 5.1625339,7.1118856 5.0962354,7.1061562 4.9654328,7.0945626 4.8370062,7.0827849 4.7109349,7.0708175 4.5871971,7.0586541 4.4657704,7.0462885 4.3466314,7.0337138 4.2297561,7.0209229 4.1151197,7.0079083 4.0026968,6.9946621 3.8924613,6.9811762 3.7843867,6.9674419 3.6784458,6.9534504 3.5746112,6.9391924 3.4728549,6.9246582 3.3731485,6.9098378 3.2754634,6.8947209 3.1797706,6.8792969 3.0860406,6.8635546 2.9942438,6.8474827 2.9043504,6.8310695 2.8163301,6.8143029 2.7301525,6.7971705 2.645787,6.7796595 2.563203,6.7617568 2.4823693,6.7434489 2.403255,6.7247221 2.3258288,6.7055623 2.2500596,6.6859549 2.175916,6.6658853 2.1033665,6.6453382 2.0323799,6.6242983 1.9629247,6.6027496 1.8949696,6.5806762 1.8284832,6.5580615 1.7634344,6.5348888 1.699792,6.5111409 1.637525,6.4868005 1.5766026,6.4618497 1.5169939,6.4362706 1.4586686,6.4100447 1.4015962,6.3831532 1.3457466,6.3555773 1.2910899,6.3272975 1.2375963,6.2982943 1.1852363,6.2685478 1.1339807,6.2380378 1.0838002,6.2067438 1.0346662,6.1746452 0.98655,6.141721 0.9394234,6.1079499 0.8932582,6.0733104 0.8480267,6.0377808 0.8037014,6.0013392 0.760255,5.9639633 0.7176607,5.9256306 0.6758918,5.8863186 0.634922,5.8460044 0.5947252,5.8046649 0.5552759,5.7622767 0.5165487,5.7188165 0.4785187,5.6742605 0.4411611,5.628585 0.4044516,5.5817658 0.3683665,5.5337788 0.332882,5.4845997 0.2979751,5.4342038 0.263623,5.3825666 0.2298031,5.3296633 0.1964936,5.275469 0.1636728,5.219959 0.1313193,5.1631082 0.0994125,5.1048917 0.0679317,5.0452845 0.036857,4.9842616 0.0061687,4.921798 -0.0241524,4.8578689 -0.0541252,4.7924494 -0.083768,4.7255148 -0.113099,4.6570403 -0.1421355,4.5870016 -0.1708949,4.5153741 -0.1993938,4.4421337 -0.2276486,4.3672564 -0.2556749,4.2907183 -0.2834884,4.2124957 -0.311104,4.1325653 -0.3385362,4.050904 -0.3657991,3.9674889 -0.3929063,3.8822974 -0.4198711,3.7953074 -0.4467061,3.706497 -0.4734236,3.6158445 -0.5000354,3.5233291 -0.5265529,3.42893 -0.5529868,3.3326272 -0.5793476,3.2344012 -0.6056451,3.1342331 -0.6318888,3.0321045 -0.6580875,2.927998 -0.6842495,2.8218966 -0.7103829,2.7137842 -0.7364949,2.6036456 -0.7625925,2.4914663 -0.7886819,2.3772328 -0.814769,2.2609325 -0.8408592,2.1425537 -0.866957,2.0220859 -0.8930669,1.8995195 -0.9191924,1.7748461 -0.9453367,1.6480584 -0.9715023,1.5191503 -0.9976913,1.3881169 -1.0239051,1.2549547 -1.0501447,1.1196613 -1.0501447,1.1196613 -1.4362455,-0.5162241z" transform="matrix(1,0,0,-1,7.7718775,7.2527133)" stroke="none" fill="#00B9E7" /></svg>