<?xml version="1.0" encoding="utf-8"?>
<!-- Generator: Fusion 360, Shaper Origin Export Add-In, Version 1.9.0  -->
<svg xmlns="http://www.w3.org/2000/svg" xmlns:xlink="http://www.w3.org/1999/xlink" xmlns:shaper="http://www.shapertools.com/namespaces/shaper" shaper:fusionaddin="version:1.9.0" width="17.2259913cm" height="14.083322cm" version="1.1" x="0cm" y="0cm" viewBox="0 0 17.2259913 14.083322" enable-background="new 0 0 17.2259913 14.083322" xml:space="preserve"><path d="M-27.5782021,-6.9325822 L-27.5782021,-6.9325822 -27.4920167,-6.9270465 -27.4064776,-6.9214981 -27.3215845,-6.9159369 -27.2373371,-6.9103629 -27.153735,-6.9047758 -27.0707778,-6.8991756 -26.9884648,-6.8935622 -26.9067953,-6.8879353 -26.8257686,-6.8822946 -26.7453836,-6.8766401 -26.6656395,-6.8709713 -26.5865351,-6.8652879 -26.5080693,-6.8595897 -26.4302408,-6.8538762 -26.3530483,-6.8481471 -26.2764903,-6.842402 -26.2005653,-6.8366403 -26.1252717,-6.8308616 -26.0506079,-6.8250655 -25.976572,-6.8192513 -25.9031622,-6.8134185 -25.8303767,-6.8075665 -25.7582133,-6.8016947 -25.6866702,-6.7958024 -25.615745,-6.789889 -25.5454356,-6.7839538 -25.4757398,-6.777996 -25.4066552,-6.7720149 -25.3381794,-6.7660096 -25.27031,-6.7599795 -25.2030443,-6.7539236 -25.1363798,-6.7478411 -25.0048439,-6.7355926 -24.8756804,-6.7232266 -24.7488665,-6.7107352 -24.6243788,-6.69811 -24.5021929,-6.6853424 -24.3822838,-6.6724232 -24.2646261,-6.6593428 -24.1491933,-6.6460912 -24.0359587,-6.6326582 -23.924895,-6.6190328 -23.8159745,-6.605204 -23.709169,-6.59116 -23.6044501,-6.576889 -23.5017887,-6.5623784 -23.4011556,-6.5476157 -23.3025213,-6.5325874 -23.205856,-6.5172802 -23.1111295,-6.50168 -23.0183115,-6.4857726 -22.9273714,-6.4695431 -22.8382784,-6.4529765 -22.7510016,-6.4360573 -22.6655098,-6.4187697 -22.5817718,-6.4010975 -22.4997563,-6.3830239 -22.4194319,-6.3645322 -22.3407671,-6.3456048 -22.2637303,-6.3262242 -22.1882901,-6.3063723 -22.1144149,-6.2860306 -22.0420733,-6.2651805 -21.9712339,-6.2438026 -21.9018653,-6.2218777 -21.8339362,-6.1993857 -21.7674157,-6.1763067 -21.7022727,-6.1526199 -21.6384764,-6.1283046 -21.5759964,-6.1033395 -21.5148022,-6.0777031 -21.4548636,-6.0513736 -21.3961506,-6.0243287 -21.3386335,-5.996546 -21.2822828,-5.9680027 -21.2270691,-5.9386757 -21.1729634,-5.9085416 -21.1199369,-5.8775767 -21.0679611,-5.8457571 -21.0170076,-5.8130586 -20.9670484,-5.7794568 -20.9180559,-5.7449269 -20.8700025,-5.7094439 -20.8228612,-5.6729826 -20.776605,-5.6355177 -20.7312075,-5.5970233 -20.6866424,-5.5574737 -20.6428839,-5.5168427 -20.5999064,-5.4751039 -20.5576847,-5.432231 -20.516194,-5.3881971 -20.4754097,-5.3429754 -20.4353077,-5.2965388 -20.3958643,-5.2488601 -20.3570561,-5.1999119 -20.3188601,-5.1496665 -20.2812536,-5.0980964 -20.2442146,-5.0451737 -20.2077212,-4.9908707 -20.1717518,-4.9351594 -20.1362856,-4.8780119 -20.1013019,-4.8194002 -20.0667804,-4.7592963 -20.0327014,-4.6976724 -19.9990454,-4.6345005 -19.9657934,-4.5697529 -19.932927,-4.5034018 -19.9004278,-4.4354196 -19.8682783,-4.3657788 -19.836461,-4.294452 -19.8049591,-4.2214121 -19.7737561,-4.1466322 -19.7428361,-4.0700855 -19.7121834,-3.9917454 -19.6817829,-3.9115857 -19.6516199,-3.8295804 -19.6216801,-3.7457038 -19.5919498,-3.6599305 -19.5624155,-3.5722355 -19.5330644,-3.4825941 -19.5038841,-3.390982 -19.4748624,-3.2973755 -19.445988,-3.2017511 -19.4172498,-3.1040861 -19.3886372,-3.0043582 -19.36014,-2.9025458 -19.3317488,-2.7986279 -19.3034542,-2.6925844 -19.2752478,-2.5843959 -19.2471213,-2.4740435 -19.219067,-2.3615096 -19.1910779,-2.2467773 -19.1631473,-2.1298306 -19.1352689,-2.0106546 -19.1074372,-1.8892353 -19.0796471,-1.76556 -19.051894,-1.6396168 -19.0241737,-1.5113954 -18.9964827,-1.3808863 -18.968818,-1.2480817 -18.9411772,-1.1129746 -18.9135582,-0.9755598 -18.8859597,-0.8358334 -18.8583808,-0.6937927 -18.8583808,-0.6937927 -18.5701777,0.9549132 -18.5701777,0.9549132 -18.5489183,1.0417246 -18.5269237,1.1275824 -18.5041943,1.2124875 -18.4807314,1.2964412 -18.4565361,1.3794455 -18.4316101,1.4615025 -18.4059555,1.5426152 -18.3795745,1.6227868 -18.3524698,1.7020209 -18.3246441,1.7803215 -18.2961006,1.857693 -18.2668427,1.9341402 -18.236874,2.0096681 -18.2061983,2.0842823 -18.1748196,2.1579884 -18.1427422,2.2307924 -18.1099704,2.3027006 -18.0765089,2.3737196 -18.0423624,2.443856 -18.0075357,2.513117 -17.9720338,2.5815095 -17.9358619,2.649041 -17.899025,2.7157189 -17.8615286,2.781551 -17.8233779,2.8465449 -17.7845783,2.9107085 -17.7451353,2.9740498 -17.7050544,3.0365767 -17.6643411,3.0982974 -17.6230009,3.1592201 -17.5810392,3.2193528 -17.5384618,3.2787038 -17.4952741,3.3372814 -17.4514816,3.3950938 -17.4070899,3.4521493 -17.3621044,3.5084563 -17.3165307,3.5640229 -17.2703743,3.6188576 -17.2236404,3.6729686 -17.1763346,3.726364 -17.1284621,3.7790522 -17.0800282,3.8310413 -17.0310381,3.8823393 -16.981497,3.9329544 -16.93141,3.9828946 -16.880782,4.0321676 -16.8296179,4.0807815 -16.7779226,4.1287439 -16.7257008,4.1760625 -16.6729572,4.2227448 -16.6196961,4.2687982 -16.5659221,4.31423 -16.5116394,4.3590474 -16.4568522,4.4032575 -16.4015644,4.446867 -16.3457801,4.4898828 -16.2895029,4.5323115 -16.2327366,4.5741596 -16.1754846,4.6154334 -16.1177504,4.6561391 -16.0595373,4.6962828 -16.0008484,4.7358703 -15.9416866,4.7749075 -15.882055,4.8133998 -15.8219562,4.8513529 -15.7613929,4.8887719 -15.7003675,4.9256621 -15.6388824,4.9620284 -15.5769399,4.9978757 -15.514542,5.0332087 -15.4516907,5.0680318 -15.3883878,5.1023495 -15.324635,5.1361659 -15.2604337,5.1694851 -15.1957855,5.2023109 -15.1306916,5.2346471 -15.065153,5.2664971 -14.9991709,5.2978643 -14.9327459,5.3287519 -14.8658789,5.359163 -14.7985704,5.3891004 -14.7308209,5.4185668 -14.6626305,5.4475647 -14.5939997,5.4760965 -14.5249283,5.5041645 -14.4554164,5.5317707 -14.3854638,5.558917 -14.3150703,5.5856053 -14.2442354,5.6118372 -14.1729588,5.6376141 -14.1012398,5.6629376 -14.0290777,5.6878087 -13.9564719,5.7122287 -13.8834214,5.7361985 -13.8099253,5.759719 -13.7359827,5.7827909 -13.6615925,5.8054149 -13.5867534,5.8275915 -13.5114642,5.8493211 -13.4357237,5.8706039 -13.3595305,5.8914402 -13.2828832,5.9118302 -13.2057803,5.9317736 -13.1282203,5.9512706 -13.0502016,5.9703208 -12.9717225,5.9889241 -12.8927816,6.00708 -12.8133771,6.0247881 -12.7335072,6.042048 -12.6531705,6.0588592 -12.5723652,6.075221 -12.4910896,6.0911329 -12.4093421,6.1065943 -12.3271211,6.1216044 -12.2444251,6.1361626 -12.1612526,6.1502682 -12.077602,6.1639206 -11.993472,6.177119 -11.9088613,6.1898629 -11.8237686,6.2021515 -11.7381928,6.2139843 -11.6521328,6.2253607 -11.5655877,6.2362802 -11.4785567,6.2467424 -11.391039,6.2567468 -11.3030341,6.266293 -11.2145416,6.2753809 -11.1255611,6.2840103 A0.4528767,0.4528767 295.8385991 0,1 -11.3194784,7.1444743 L-11.3194784,7.1444743 -11.4113806,7.1451329 -11.5025741,7.1456971 -11.593059,7.1461669 -11.6828356,7.1465421 -11.7719045,7.1468227 -11.8602662,7.1470087 -11.9479214,7.1471 -12.0348707,7.1470965 -12.1211152,7.146998 -12.2066558,7.1468044 -12.2914936,7.1465156 -12.3756298,7.1461315 -12.4590657,7.1456517 -12.5418026,7.1450762 -12.6238422,7.1444046 -12.7051859,7.1436369 -12.7858354,7.1427726 -12.8657926,7.1418116 -12.9450592,7.1407536 -13.0236372,7.1395982 -13.1015287,7.1383451 -13.1787357,7.1369941 -13.2552606,7.1355446 -13.3311054,7.1339965 -13.4062727,7.1323491 -13.4807648,7.1306023 -13.5545843,7.1287554 -13.6277337,7.1268082 -13.7002157,7.12476 -13.772033,7.1226105 -13.8431885,7.120359 -13.9136849,7.1180052 -13.9835253,7.1155484 -14.0527126,7.1129881 -14.1212498,7.1103236 -14.1891401,7.1075545 -14.2563867,7.10468 -14.3229927,7.1016996 -14.3889615,7.0986126 -14.4542963,7.0954182 -14.5190006,7.0921159 -14.5830778,7.0887048 -14.6465314,7.0851843 -14.7093649,7.0815535 -14.7715819,7.0778117 -14.8331859,7.0739581 -14.8941807,7.0699919 -14.95457,7.0659121 -15.0143573,7.0617181 -15.0735466,7.0574088 -15.1321416,7.0529834 -15.1901462,7.0484409 -15.3043993,7.0390009 -15.4163373,7.029081 -15.5259917,7.018673 -15.6333946,7.0077683 -15.7385783,6.996358 -15.8415756,6.9844329 -15.9424197,6.9719834 -16.041144,6.9589997 -16.1377821,6.9454713 -16.2323679,6.9313878 -16.3249357,6.916738 -16.4155198,6.9015108 -16.5041548,6.8856943 -16.5908752,6.8692766 -16.6757161,6.8522454 -16.7587121,6.8345878 -16.8398985,6.8162907 -16.9193101,6.7973408 -16.9969821,6.7777243 -17.0729495,6.7574269 -17.1472473,6.7364342 -17.2199105,6.7147313 -17.290974,6.692303 -17.3604725,6.6691337 -17.4284408,6.6452075 -17.4949132,6.620508 -17.5599241,6.5950186 -17.6235077,6.5687222 -17.6856977,6.5416016 -17.7465279,6.5136389 -17.8060318,6.4848162 -17.8642426,6.455115 -17.9211933,6.4245167 -17.9769167,6.3930022 -18.0314451,6.3605521 -18.084811,6.3271468 -18.1370461,6.2927663 -18.1881822,6.2573904 -18.2382506,6.2209985 -18.2872824,6.1835697 -18.3353084,6.145083 -18.382359,6.105517 -18.4284643,6.0648499 -18.4736541,6.0230598 -18.5179578,5.9801246 -18.5614045,5.9360218 -18.604023,5.8907288 -18.6458415,5.8442225 -18.686888,5.7964799 -18.7271901,5.7474775 -18.766775,5.6971917 -18.8056695,5.6455988 -18.8438999,5.5926746 -18.8814921,5.5383949 -18.9184717,5.4827354 -18.9548637,5.4256714 -18.9906929,5.3671784 -19.0259835,5.3072316 -19.0607592,5.245806 -19.0950435,5.1828768 -19.1288591,5.1184189 -19.1622287,5.0524075 -19.1951742,4.9848173 -19.2277172,4.9156236 -19.2598787,4.8448012 -19.2916795,4.7723254 -19.3231396,4.6981712 -19.3542789,4.6223139 -19.3851164,4.5447289 -19.415671,4.4653918 -19.445961,4.3842781 -19.4760041,4.3013637 -19.5058176,4.2166247 -19.5354183,4.1300374 -19.5648226,4.0415781 -19.5940462,3.9512237 -19.6231044,3.8589512 -19.6520121,3.764738 -19.6807835,3.6685616 -19.7094324,3.5704001 -19.7379721,3.470232 -19.7664152,3.3680362 -19.794774,3.2637921 -19.82306,3.1574798 -19.8512845,3.0490798 -19.8794578,2.9385734 -19.9075901,2.8259425 -19.9356908,2.7111697 -19.9637686,2.5942385 -19.991832,2.4751332 -20.0198886,2.3538389 -20.0479456,2.2303416 -20.0760095,2.1046283 -20.1040862,1.9766872 -20.1321812,1.8465071 -20.1602991,1.7140783 -20.1884441,1.579392 -20.2166198,1.4424408 -20.244829,1.3032182 -20.2730739,1.1617194 -20.3013564,1.0179404 -20.3296772,0.8718791 -20.3296772,0.8718791 -20.6327372,-0.7022531 -20.6327372,-0.7022531 -20.6473025,-0.7756466 -20.6626338,-0.848499 -20.6787304,-0.9208107 -20.6955914,-0.9925823 -20.7132155,-1.0638145 -20.731601,-1.1345082 -20.7507462,-1.2046645 -20.7706486,-1.2742848 -20.7913059,-1.3433703 -20.8127153,-1.4119227 -20.8348739,-1.4799437 -20.8577783,-1.5474349 -20.8814251,-1.6143984 -20.9058107,-1.6808361 -20.9309313,-1.7467501 -20.9567828,-1.8121427 -20.983361,-1.877016 -21.0106615,-1.9413724 -21.0386801,-2.0052144 -21.0674119,-2.0685442 -21.0968525,-2.1313643 -21.1269969,-2.1936773 -21.1578403,-2.2554855 -21.1893777,-2.3167916 -21.2216043,-2.3775979 -21.254515,-2.437907 -21.2881048,-2.4977213 -21.3223686,-2.5570432 -21.3573014,-2.6158752 -21.3928981,-2.6742195 -21.4291537,-2.7320785 -21.4660632,-2.7894544 -21.5036217,-2.8463494 -21.541824,-2.9027657 -21.5806653,-2.9587054 -21.6201407,-3.0141704 -21.6602453,-3.0691628 -21.7009744,-3.1236843 -21.7423231,-3.1777369 -21.7842869,-3.2313222 -21.8268611,-3.2844419 -21.8700411,-3.3370975 -21.9138226,-3.3892905 -21.9582011,-3.4410222 -22.0031724,-3.492294 -22.0487324,-3.5431069 -22.094877,-3.593462 -22.1416022,-3.6433602 -22.1889042,-3.6928023 -22.2367794,-3.7417891 -22.2852241,-3.7903211 -22.3342349,-3.8383988 -22.3838086,-3.8860223 -22.4339421,-3.933192 -22.4846322,-3.9799078 -22.5358763,-4.0261696 -22.5876716,-4.0719773 -22.6400155,-4.1173304 -22.6929057,-4.1622284 -22.7463399,-4.2066707 -22.800316,-4.2506565 -22.854832,-4.294185 -22.9098863,-4.3372551 -22.965477,-4.3798656 -23.0216027,-4.4220153 -23.0782621,-4.4637028 -23.135454,-4.5049264 -23.1931772,-4.5456846 -23.251431,-4.5859755 -23.3102146,-4.6257971 -23.3695274,-4.6651475 -23.4293689,-4.7040244 -23.4897389,-4.7424255 -23.5506373,-4.7803484 -23.612064,-4.8177905 -23.6740194,-4.854749 -23.7365036,-4.8912212 -23.7995172,-4.9272042 -23.8630608,-4.9626948 -23.9271353,-4.9976898 -23.9917416,-5.0321859 -24.0568808,-5.0661798 -24.122554,-5.099668 -24.1887627,-5.1326467 -24.2555083,-5.1651123 -24.3227925,-5.197061 -24.3906169,-5.228489 -24.4589833,-5.2593922 -24.5278938,-5.2897667 -24.5973502,-5.3196084 -24.6673549,-5.3489132 -24.7379099,-5.3776767 -24.8090176,-5.4058949 -24.8806805,-5.4335634 -24.9529009,-5.4606779 -25.0256814,-5.487234 -25.0990247,-5.5132273 -25.1729333,-5.5386535 -25.2474101,-5.563508 -25.3224579,-5.5877866 -25.3980793,-5.6114846 -25.4742775,-5.6345978 -25.5510552,-5.6571216 -25.6284154,-5.6790516 -25.7063611,-5.7003835 -25.7848954,-5.7211127 -25.8640211,-5.7412351 -25.9437412,-5.7607464 -26.0240588,-5.7796423 -26.1049768,-5.7979187 -26.1864981,-5.8155716 -26.2686254,-5.8325971 -26.3513617,-5.8489914 -26.4347095,-5.8647508 -26.5186715,-5.8798718 -26.6032501,-5.894351 -26.6884479,-5.9081852 -26.7742671,-5.9213714 -26.8607097,-5.9339067 -26.9477779,-5.9457886 -27.0354734,-5.9570146 -27.1237979,-5.9675826 -27.212753,-5.9774906 -27.3023399,-5.9867369 -27.3925597,-5.9953201 -27.4834133,-6.0032391 -27.5749014,-6.010493 -27.6670245,-6.0170813 A0.4600953,0.4600953 93.8712692 1,1 -27.5782021,-6.9325822z" transform="matrix(1,0,0,-1,28.0960564,7.1471)" stroke="none" fill="#ffffff" /></svg>