<?xml version="1.0" encoding="utf-8"?>
<!-- Generator: Fusion 360, Shaper Origin Export Add-In, Version 1.9.0  -->
<svg xmlns="http://www.w3.org/2000/svg" xmlns:xlink="http://www.w3.org/1999/xlink" xmlns:shaper="http://www.shapertools.com/namespaces/shaper" shaper:fusionaddin="version:1.9.0" width="17.3108992cm" height="14.0219384cm" version="1.1" x="0cm" y="0cm" viewBox="0 0 17.3108992 14.0219384" enable-background="new 0 0 17.3108992 14.0219384" xml:space="preserve"><path d="M-27.5029203,-6.9325822 L-27.5029203,-6.9325822 -27.4161485,-6.9270135 -27.3300204,-6.921441 -27.2445357,-6.9158645 -27.1596941,-6.910284 -27.0754954,-6.9046993 -26.9919389,-6.8991103 -26.909024,-6.8935168 -26.8267502,-6.8879186 -26.7451165,-6.8823155 -26.664122,-6.8767072 -26.5837659,-6.8710934 -26.504047,-6.8654737 -26.4249641,-6.8598478 -26.3465161,-6.8542153 -26.2687015,-6.8485758 -26.1915189,-6.8429288 -26.1149669,-6.8372739 -26.0390438,-6.8316104 -25.963748,-6.825938 -25.8890777,-6.8202559 -25.8150311,-6.8145636 -25.7416064,-6.8088604 -25.6688014,-6.8031457 -25.5966142,-6.7974189 -25.5250427,-6.791679 -25.4540846,-6.7859255 -25.3837377,-6.7801575 -25.3139998,-6.7743742 -25.2448683,-6.7685748 -25.1763409,-6.7627584 -25.0410882,-6.751071 -24.9082208,-6.7393044 -24.7777171,-6.7274507 -24.6495546,-6.7155013 -24.5237098,-6.7034475 -24.4001589,-6.6912799 -24.2788768,-6.6789888 -24.1598383,-6.6665638 -24.0430173,-6.6539945 -23.9283872,-6.6412696 -23.815921,-6.6283778 -23.7055912,-6.615307 -23.5973698,-6.6020451 -23.4912287,-6.5885791 -23.387139,-6.574896 -23.2850719,-6.5609822 -23.1849981,-6.5468237 -23.0868879,-6.5324061 -22.9907117,-6.5177146 -22.8964391,-6.502734 -22.8040401,-6.4874488 -22.713484,-6.471843 -22.6247403,-6.4559001 -22.5377781,-6.4396035 -22.4525666,-6.422936 -22.3690746,-6.40588 -22.287271,-6.3884176 -22.2071248,-6.3705306 -22.1286047,-6.3522003 -22.0516795,-6.3334077 -21.976318,-6.3141333 -21.9024892,-6.2943573 -21.8301618,-6.2740597 -21.7593051,-6.25322 -21.6898879,-6.2318171 -21.6218797,-6.2098301 -21.5552497,-6.1872372 -21.4899677,-6.1640166 -21.4260033,-6.1401459 -21.3633265,-6.1156027 -21.3019075,-6.0903639 -21.2417168,-6.0644063 -21.1827248,-6.0377064 -21.1249025,-6.0102401 -21.0682208,-5.9819835 -21.0126512,-5.9529119 -20.9581652,-5.9230007 -20.9047347,-5.8922247 -20.8523316,-5.8605587 -20.8009284,-5.8279771 -20.7504978,-5.794454 -20.7010126,-5.7599634 -20.6524462,-5.7244788 -20.604772,-5.6879738 -20.5579639,-5.6504215 -20.5119962,-5.611795 -20.4668432,-5.5720669 -20.4224799,-5.5312098 -20.3788814,-5.489196 -20.3360232,-5.4459978 -20.2938813,-5.4015871 -20.252432,-5.3559356 -20.2116518,-5.3090151 -20.1715178,-5.2607969 -20.1320074,-5.2112524 -20.0930983,-5.1603528 -20.0547688,-5.1080691 -20.0169974,-5.0543725 -19.9797631,-4.9992338 -19.9430452,-4.942624 -19.9068235,-4.8845141 -19.8710782,-4.824875 -19.8357898,-4.7636776 -19.8009393,-4.700893 -19.7665082,-4.6364923 -19.7324781,-4.5704467 -19.6988313,-4.5027275 -19.6655505,-4.4333061 -19.6326187,-4.3621541 -19.6000194,-4.2892435 -19.5677364,-4.2145461 -19.5357542,-4.1380342 -19.5040575,-4.0596803 -19.4726315,-3.9794571 -19.4414619,-3.8973377 -19.4105346,-3.8132954 -19.3798363,-3.7273038 -19.3493539,-3.6393372 -19.3190749,-3.5493698 -19.288987,-3.4573765 -19.2590787,-3.3633326 -19.2293386,-3.2672139 -19.1997561,-3.1689968 -19.1703209,-3.0686582 -19.141023,-2.9661757 -19.1118532,-2.8615277 -19.0828027,-2.7546932 -19.0538628,-2.6456522 -19.0250259,-2.5343851 -18.9962844,-2.4208737 -18.9676313,-2.3051005 -18.9390603,-2.1870489 -18.9105654,-2.0667035 -18.882141,-1.9440498 -18.8537823,-1.8190746 -18.8254847,-1.6917658 -18.7972444,-1.5621125 -18.7690579,-1.4301051 -18.7409222,-1.2957352 -18.712835,-1.1589959 -18.6847944,-1.0198816 -18.6567991,-0.8783883 -18.6288481,-0.7345133 -18.6288481,-0.7345133 -18.1983135,0.945806 -18.1983135,0.945806 -18.1809344,1.0148309 -18.1627693,1.0834052 -18.1438188,1.1515291 -18.1240841,1.219203 -18.1035666,1.2864275 -18.0822681,1.3532033 -18.0601909,1.4195312 -18.0373375,1.485412 -18.0137107,1.5508469 -17.9893138,1.6158369 -17.9641501,1.6803833 -17.9382234,1.7444874 -17.9115376,1.8081505 -17.8840971,1.8713741 -17.8559062,1.9341597 -17.8269697,1.9965089 -17.7972925,2.0584232 -17.7668797,2.1199042 -17.7357364,2.1809537 -17.7038682,2.2415733 -17.6712805,2.3017647 -17.6379791,2.3615297 -17.6039697,2.4208697 -17.5692583,2.4797867 -17.5338509,2.5382822 -17.4977534,2.5963578 -17.4609721,2.6540151 -17.423513,2.7112558 -17.3853823,2.7680813 -17.3465863,2.824493 -17.3071312,2.8804924 -17.2670233,2.9360808 -17.2262688,2.9912596 -17.184874,3.0460299 -17.1428451,3.1003929 -17.1001885,3.1543497 -17.0569104,3.2079014 -17.013017,3.261049 -16.9685145,3.3137931 -16.923409,3.3661348 -16.8777067,3.4180746 -16.8314137,3.4696133 -16.7845359,3.5207513 -16.7370792,3.571489 -16.6890497,3.6218269 -16.640453,3.6717651 -16.591295,3.7213038 -16.5415811,3.7704429 -16.4913171,3.8191825 -16.4405083,3.8675223 -16.38916,3.9154619 -16.3372775,3.963001 -16.2848659,4.0101389 -16.2319301,4.0568751 -16.178475,4.1032086 -16.1245053,4.1491385 -16.0700256,4.1946638 -16.0150404,4.2397832 -15.9595541,4.2844955 -15.9035708,4.3287993 -15.8470946,4.3726929 -15.7901295,4.4161748 -15.7326792,4.4592431 -15.6747476,4.5018959 -15.6163381,4.5441312 -15.5574542,4.5859468 -15.4980992,4.6273406 -15.4382761,4.66831 -15.377988,4.7088527 -15.3172378,4.748966 -15.2560282,4.7886471 -15.1943618,4.8278933 -15.1322411,4.8667016 -15.0696683,4.9050689 -15.0066456,4.9429921 -14.943175,4.9804678 -14.8792585,5.0174927 -14.8148976,5.0540632 -14.7500941,5.0901757 -14.6848493,5.1258265 -14.6191646,5.1610118 -14.553041,5.1957276 -14.4864797,5.22997 -14.4194814,5.2637348 -14.3520471,5.297018 -14.2841773,5.3298151 -14.2158725,5.362122 -14.1471332,5.3939343 -14.0779597,5.4252476 -14.008352,5.4560573 -13.9383104,5.486359 -13.8678348,5.5161481 -13.796925,5.54542 -13.7255808,5.57417 -13.6538019,5.6023936 -13.5815879,5.630086 -13.5089383,5.6572426 -13.4358524,5.6838587 -13.3623297,5.7099295 -13.2883694,5.7354504 -13.2139706,5.7604168 -13.1391326,5.7848238 -13.0638542,5.8086668 -12.9881345,5.8319413 -12.9119725,5.8546426 -12.8353669,5.8767662 -12.7583166,5.8983075 -12.6808204,5.9192621 -12.6028771,5.9396257 -12.5244854,5.959394 -12.445644,5.9785628 -12.3663517,5.9971282 -12.2866072,6.0150861 -12.2064092,6.0324328 -12.1257565,6.0491648 -12.044648,6.0652784 -11.9630824,6.0807706 -11.8810587,6.095638 -11.7985757,6.109878 -11.7156324,6.1234878 -11.632228,6.1364649 -11.5483614,6.1488071 -11.4640321,6.1605125 -11.3792392,6.1715793 -11.2939823,6.1820061 -11.2082607,6.1917918 -11.1220742,6.2009355 -11.0354225,6.2094366 A0.4528767,0.4528767 296.3000329 0,1 -11.2335008,7.0683037 L-11.2335008,7.0683037 -11.3264026,7.0687993 -11.4186052,7.0692243 -11.5101088,7.0695785 -11.6009138,7.069862 -11.6910205,7.0700747 -11.7804295,7.0702165 -11.8691415,7.0702872 -11.9571572,7.0702867 -12.0444775,7.0702148 -12.1311033,7.0700714 -12.2170358,7.0698563 -12.3022761,7.0695692 -12.3868255,7.0692099 -12.4706852,7.068778 -12.5538569,7.0682734 -12.6363421,7.0676956 -12.7181423,7.0670444 -12.7992594,7.0663193 -12.8796951,7.0655201 -12.9594513,7.0646462 -13.0385301,7.0636972 -13.1169336,7.0626728 -13.1946637,7.0615723 -13.2717229,7.0603954 -13.3481134,7.0591415 -13.4238376,7.05781 -13.498898,7.0564004 -13.573297,7.0549121 -13.6470373,7.0533445 -13.7201216,7.0516969 -13.7925525,7.0499687 -13.864333,7.0481592 -13.9354658,7.0462676 -14.0059538,7.0442934 -14.0758002,7.0422356 -14.1450078,7.0400935 -14.2135799,7.0378664 -14.2815195,7.0355534 -14.34883,7.0331537 -14.4155144,7.0306663 -14.4815762,7.0280905 -14.5470186,7.0254252 -14.6118452,7.0226696 -14.6760593,7.0198226 -14.7396645,7.0168833 -14.8026642,7.0138507 -14.865062,7.0107238 -14.9268616,7.0075014 -15.0486806,7.0007659 -15.1681506,6.9936355 -15.2853017,6.9861007 -15.4001643,6.9781518 -15.5127694,6.9697787 -15.6231481,6.9609709 -15.7313322,6.9517175 -15.8373535,6.9420072 -15.9412444,6.9318283 -16.0430375,6.9211689 -16.1427656,6.9100164 -16.2404617,6.8983581 -16.3361593,6.8861808 -16.4298917,6.8734708 -16.5216926,6.8602143 -16.6115959,6.8463969 -16.6996353,6.8320038 -16.785845,6.8170199 -16.8702589,6.8014298 -16.9529112,6.7852176 -17.033836,6.7683669 -17.1130673,6.7508613 -17.1906392,6.7326837 -17.2665857,6.7138166 -17.3409406,6.6942424 -17.4137379,6.6739428 -17.485011,6.6528994 -17.5547935,6.6310932 -17.6231187,6.6085049 -17.6900196,6.5851149 -17.7555292,6.5609032 -17.8196801,6.5358494 -17.8825047,6.5099327 -17.9440352,6.4831321 -18.0043036,6.4554261 -18.0633415,6.426793 -18.1211804,6.3972108 -18.1778515,6.3666569 -18.2333856,6.3351088 -18.2878133,6.3025433 -18.341165,6.2689372 -18.3934706,6.2342668 -18.4447599,6.1985083 -18.4950621,6.1616374 -18.5444063,6.1236298 -18.5928213,6.0844606 -18.6403354,6.0441049 -18.6869765,6.0025375 -18.7327724,5.9597328 -18.7777502,5.9156652 -18.8219369,5.8703087 -18.8653589,5.8236371 -18.9080425,5.7756239 -18.9500132,5.7262426 -18.9912963,5.6754663 -19.0319168,5.623268 -19.071899,5.5696206 -19.111267,5.5144967 -19.1500445,5.4578688 -19.1882545,5.3997095 -19.2259198,5.3399912 -19.2630628,5.2786862 -19.2997053,5.2157668 -19.3358687,5.1512052 -19.3715741,5.084974 -19.4068419,5.0170453 -19.4416923,4.9473916 -19.4761449,4.8759853 -19.5102189,4.8027991 -19.543933,4.7278057 -19.5773054,4.6509779 -19.610354,4.5722887 -19.6430962,4.4917114 -19.6755486,4.4092193 -19.7077278,4.324786 -19.7396496,4.2383856 -19.7713295,4.1499921 -19.8027823,4.05958 -19.8340225,3.9671241 -19.8650641,3.8725995 -19.8959206,3.7759818 -19.9266049,3.6772468 -19.9571294,3.5763709 -19.9875061,3.4733311 -20.0177465,3.3681049 -20.0478614,3.2606704 -20.0778613,3.1510063 -20.1077561,3.0390922 -20.1375551,2.9249082 -20.1672671,2.8084355 -20.1969004,2.6896559 -20.2264628,2.5685523 -20.2559614,2.4451085 -20.285403,2.3193092 -20.3147935,2.1911403 -20.3441386,2.0605887 -20.3587956,1.9944156 -20.3734431,1.9276424 -20.3880816,1.8602679 -20.4027116,1.7922908 -20.4173336,1.7237099 -20.4319479,1.6545242 -20.446555,1.5847328 -20.4611552,1.5143346 -20.4757488,1.4433289 -20.4903362,1.371715 -20.5049175,1.2994922 -20.519493,1.22666 -20.5340628,1.1532179 -20.5486271,1.0791655 -20.563186,1.0045026 -20.5777396,0.9292289 -20.5777396,0.9292289 -21.030933,-0.7066565 -21.030933,-0.7066565 -21.0473039,-0.7719944 -21.0642901,-0.8370321 -21.0818914,-0.9017698 -21.1001069,-0.9662075 -21.1189359,-1.0303454 -21.1383771,-1.0941835 -21.1584294,-1.157722 -21.1790911,-1.2209611 -21.2003607,-1.2839009 -21.2222362,-1.3465415 -21.2447156,-1.4088831 -21.2677969,-1.4709258 -21.2914776,-1.5326697 -21.3157554,-1.5941149 -21.3406277,-1.6552614 -21.366092,-1.7161093 -21.3921454,-1.7766586 -21.4187851,-1.8369091 -21.4460083,-1.8968608 -21.4738121,-1.9565136 -21.5021934,-2.0158672 -21.5311492,-2.0749213 -21.5606764,-2.1336757 -21.590772,-2.1921299 -21.621433,-2.2502835 -21.6526561,-2.308136 -21.6844385,-2.3656865 -21.716777,-2.4229346 -21.7496688,-2.4798793 -21.7831107,-2.5365197 -21.8170999,-2.5928549 -21.8516336,-2.6488837 -21.8867089,-2.704605 -21.9223231,-2.7600175 -21.9584734,-2.8151198 -21.9951573,-2.8699105 -22.0323721,-2.9243878 -22.0701153,-2.9785503 -22.1083846,-3.032396 -22.1471775,-3.085923 -22.1864919,-3.1391294 -22.2263256,-3.1920129 -22.2666766,-3.2445714 -22.3075428,-3.2968025 -22.3489225,-3.3487038 -22.3908139,-3.4002725 -22.4332154,-3.4515061 -22.4761254,-3.5024016 -22.5195427,-3.5529561 -22.563466,-3.6031665 -22.6078942,-3.6530297 -22.6528262,-3.7025421 -22.6982614,-3.7517004 -22.744199,-3.8005009 -22.7906385,-3.8489399 -22.8375795,-3.8970136 -22.8850217,-3.9447178 -22.9329652,-3.9920486 -22.9814098,-4.0390016 -23.0303559,-4.0855724 -23.0798038,-4.1317566 -23.1297538,-4.1775496 -23.1802068,-4.2229466 -23.2311634,-4.2679428 -23.2826245,-4.3125332 -23.3345912,-4.3567127 -23.3870648,-4.4004761 -23.4400464,-4.4438182 -23.4935377,-4.4867335 -23.5475402,-4.5292164 -23.6020556,-4.5712614 -23.657086,-4.6128627 -23.7126333,-4.6540145 -23.7686997,-4.6947107 -23.8252875,-4.7349455 -23.8823993,-4.7747125 -23.9400375,-4.8140057 -23.998205,-4.8528185 -24.0569046,-4.8911446 -24.1161393,-4.9289775 -24.1759123,-4.9663105 -24.2362268,-5.003137 -24.2970862,-5.0394501 -24.358494,-5.0752432 -24.4204537,-5.1105092 -24.4829691,-5.1452414 -24.5460439,-5.1794326 -24.6096819,-5.2130759 -24.6738872,-5.2461643 -24.7386637,-5.2786908 -24.8040155,-5.3106482 -24.8699469,-5.3420294 -24.9364619,-5.3728274 -25.0035648,-5.4030352 -25.0712601,-5.4326455 -25.1395519,-5.4616514 -25.2084448,-5.4900459 -25.2779431,-5.5178219 -25.3480512,-5.5449724 -25.4187737,-5.5714905 -25.490115,-5.5973695 -25.5620796,-5.6226023 -25.6346719,-5.6471823 -25.7078965,-5.6711028 -25.7817579,-5.6943571 -25.8562604,-5.7169388 -25.9314084,-5.7388415 -26.0072064,-5.7600588 -26.0836586,-5.7805846 -26.1607691,-5.800413 -26.2385421,-5.819538 -26.3169817,-5.8379541 -26.3960916,-5.8556559 -26.4758757,-5.872638 -26.5563376,-5.8888955 -26.6374806,-5.9044236 -26.7193082,-5.9192178 -26.8018234,-5.9332739 -26.8850291,-5.9465878 -26.968928,-5.9591561 -27.0535226,-5.9709753 -27.1388151,-5.9820424 -27.2248075,-5.9923547 -27.3115017,-6.00191 -27.3988989,-6.0107062 -27.4870004,-6.0187419 -27.5758071,-6.026016 -27.6653195,-6.0325275 A0.4600953,0.4600953 93.9024345 1,1 -27.5029203,-6.9325822z" transform="matrix(1,0,0,-1,28.0941018,7.0702872)" stroke="none" fill="#ffffff" /></svg>