<?xml version="1.0" encoding="utf-8"?>
<!-- Generator: Fusion 360, Shaper Origin Export Add-In, Version 1.9.0  -->
<svg xmlns="http://www.w3.org/2000/svg" xmlns:xlink="http://www.w3.org/1999/xlink" xmlns:shaper="http://www.shapertools.com/namespaces/shaper" shaper:fusionaddin="version:1.9.0" width="17.916253cm" height="14.0178609cm" version="1.1" x="0cm" y="0cm" viewBox="0 0 17.916253 14.0178609" enable-background="new 0 0 17.916253 14.0178609" xml:space="preserve"><path d="M-20.1000003,-0.2 L-20.1000003,-0.2 -20.1184201,-0.2731126 -20.1376706,-0.3456457 -20.1577509,-0.4175999 -20.1786601,-0.4889756 -20.2003966,-0.5597739 -20.2229586,-0.6299959 -20.2463438,-0.6996427 -20.2705496,-0.7687159 -20.2955732,-0.8372172 -20.3214113,-0.9051483 -20.3480605,-0.9725113 -20.375517,-1.0393083 -20.4037768,-1.1055415 -20.4328356,-1.1712135 -20.4626889,-1.2363266 -20.4933319,-1.3008836 -20.5247598,-1.3648872 -20.5569675,-1.4283401 -20.5899496,-1.4912452 -20.6237007,-1.5536056 -20.6582153,-1.6154242 -20.6934878,-1.676704 -20.7295122,-1.7374482 -20.7662827,-1.7976598 -20.8037934,-1.857342 -20.8420382,-1.9164978 -20.881011,-1.9751304 -20.9207059,-2.033243 -20.9611166,-2.0908385 -21.0022371,-2.14792 -21.0440611,-2.2044905 -21.0865825,-2.260553 -21.1297952,-2.3161105 -21.1736931,-2.3711658 -21.2182699,-2.4257219 -21.2635196,-2.4797814 -21.3094361,-2.5333472 -21.3560134,-2.5864219 -21.4032455,-2.6390082 -21.4511264,-2.6911085 -21.4996503,-2.7427254 -21.5488113,-2.7938612 -21.5986037,-2.8445183 -21.6490218,-2.8946988 -21.7000601,-2.9444049 -21.7517129,-2.9936386 -21.8039749,-3.0424018 -21.8568409,-3.0906963 -21.9103056,-3.1385239 -21.964364,-3.1858861 -22.0190111,-3.2327844 -22.0742421,-3.2792201 -22.1300524,-3.3251944 -22.1864374,-3.3707085 -22.2433927,-3.4157632 -22.3009142,-3.4603594 -22.3589976,-3.5044979 -22.4176391,-3.548179 -22.4768349,-3.5914034 -22.5365812,-3.6341712 -22.5968746,-3.6764826 -22.6577116,-3.7183378 -22.7190892,-3.7597366 -22.7810041,-3.8006787 -22.8434536,-3.8411639 -22.9064347,-3.8811917 -22.969945,-3.9207614 -23.0339818,-3.9598724 -23.098543,-3.9985238 -23.1636263,-4.0367145 -23.2292298,-4.0744436 -23.2953517,-4.1117096 -23.3619901,-4.1485113 -23.4291436,-4.1848472 -23.4968108,-4.2207156 -23.5649905,-4.2561147 -23.6336816,-4.2910428 -23.7028833,-4.3254977 -23.7725948,-4.3594773 -23.8428154,-4.3929794 -23.9135449,-4.4260016 -23.9847829,-4.4585414 -24.0565292,-4.4905962 -24.1287839,-4.5221634 -24.2015471,-4.55324 -24.274819,-4.5838233 -24.3486002,-4.6139102 -24.422891,-4.6434978 -24.4976921,-4.6725828 -24.5730042,-4.7011621 -24.6488283,-4.7292323 -24.7251653,-4.7567903 -24.8020163,-4.7838324 -24.8793823,-4.8103554 -24.9572648,-4.8363557 -25.035665,-4.8618298 -25.1145843,-4.886774 -25.1940243,-4.9111849 -25.2739866,-4.9350587 -25.3544728,-4.9583917 -25.4354847,-4.9811804 -25.5170241,-5.003421 -25.5990928,-5.0251097 -25.6816927,-5.046243 -25.7648258,-5.0668171 -25.8484941,-5.0868282 -25.9326997,-5.1062728 -26.0174445,-5.1251473 -26.1027306,-5.1434479 -26.1885602,-5.1611713 -26.2749351,-5.1783141 -26.3618576,-5.1948727 -26.4493295,-5.2108441 -26.5373527,-5.226225 -26.6259293,-5.2410124 -26.715061,-5.2552035 -26.8047497,-5.2687953 -26.8949969,-5.2817854 -26.9858043,-5.2941712 -27.0771734,-5.3059506 -27.1691056,-5.3171214 -27.2616022,-5.3276816 -27.3546642,-5.3376297 -27.4482927,-5.3469642 -27.5424886,-5.3556838 -27.6372525,-5.3637875 -27.7325849,-5.3712746 -27.8284862,-5.3781446 A0.8022283,0.8022283 110.0010139 0,1 -27.5029203,-6.9325822 L-27.5029203,-6.9325822 -27.4133204,-6.9268016 -27.3244337,-6.9209591 -27.23626,-6.9150547 -27.1487991,-6.9090884 -27.0620504,-6.90306 -26.9760134,-6.8969695 -26.8906874,-6.8908169 -26.8060717,-6.8846019 -26.7221652,-6.8783244 -26.6389671,-6.8719843 -26.5564761,-6.8655813 -26.4746912,-6.8591154 -26.3936109,-6.8525862 -26.3132339,-6.8459936 -26.2335586,-6.8393372 -26.1545834,-6.8326169 -26.0763066,-6.8258322 -25.9987264,-6.8189829 -25.921841,-6.8120687 -25.8456483,-6.8050892 -25.7701463,-6.798044 -25.6953328,-6.7909328 -25.6212055,-6.783755 -25.5477622,-6.7765104 -25.4750005,-6.7691984 -25.4029178,-6.7618185 -25.3315117,-6.7543703 -25.2607794,-6.7468533 -25.1907183,-6.7392669 -25.1213256,-6.7316106 -25.0525985,-6.7238838 -24.9845339,-6.7160859 -24.9171291,-6.7082164 -24.8503808,-6.7002745 -24.784286,-6.6922596 -24.7188415,-6.684171 -24.6540441,-6.6760081 -24.5898906,-6.6677702 -24.5263774,-6.6594565 -24.4635014,-6.6510662 -24.4012589,-6.6425986 -24.3396466,-6.6340529 -24.2786608,-6.6254283 -24.218298,-6.6167239 -24.1585545,-6.6079389 -24.0994266,-6.5990724 -24.0409107,-6.5901235 -23.9830029,-6.5810913 -23.9256994,-6.5719749 -23.8689965,-6.5627732 -23.7573765,-6.5441103 -23.6481118,-6.5250946 -23.5411702,-6.5057175 -23.4365197,-6.4859704 -23.3341273,-6.4658441 -23.2339601,-6.4453291 -23.1359845,-6.4244158 -23.0401666,-6.403094 -22.9464722,-6.3813533 -22.854867,-6.3591829 -22.7653162,-6.3365717 -22.6777847,-6.3135082 -22.5922374,-6.2899807 -22.5086389,-6.2659771 -22.4269536,-6.2414849 -22.3471459,-6.2164914 -22.2691799,-6.1909835 -22.1930197,-6.1649477 -22.1186294,-6.1383703 -22.045973,-6.1112372 -21.9750145,-6.083534 -21.9057179,-6.0552459 -21.8380472,-6.0263578 -21.7719665,-5.9968543 -21.7074402,-5.9667197 -21.6444325,-5.9359379 -21.5829079,-5.9044926 -21.5228311,-5.8723669 -21.4641669,-5.8395439 -21.4068804,-5.8060061 -21.3509367,-5.7717359 -21.2963014,-5.7367153 -21.24294,-5.7009261 -21.1908186,-5.6643496 -21.1399032,-5.6269669 -21.0901603,-5.588759 -21.0415565,-5.5497063 -20.9940586,-5.5097892 -20.947634,-5.4689876 -20.90225,-5.4272815 -20.8578744,-5.3846502 -20.8144754,-5.341073 -20.7720212,-5.296529 -20.7304806,-5.2509969 -20.6898227,-5.2044553 -20.6500167,-5.1568825 -20.6110325,-5.1082566 -20.57284,-5.0585555 -20.5354098,-5.0077568 -20.4987126,-4.955838 -20.4627196,-4.9027764 -20.4274026,-4.8485491 -20.3927333,-4.7931329 -20.3586844,-4.7365046 -20.3252285,-4.6786407 -20.2923389,-4.6195177 -20.2599894,-4.5591118 -20.2281539,-4.4973992 -20.196807,-4.4343561 -20.1659238,-4.3699584 -20.1354795,-4.3041822 -20.1054501,-4.2370034 -20.0758118,-4.168398 -20.0465415,-4.0983419 -20.0176163,-4.0268112 -19.989014,-3.953782 -19.9607127,-3.8792302 -19.932691,-3.8031322 -19.9049281,-3.7254642 -19.8774036,-3.6462026 -19.8500975,-3.5653241 -19.8229904,-3.4828054 -19.7960634,-3.3986233 -19.7692981,-3.3127551 -19.7426766,-3.225178 -19.7161814,-3.1358696 -19.6897956,-3.0448078 -19.663503,-2.9519706 -19.6372877,-2.8573365 -19.6111342,-2.7608842 -19.585028,-2.6625928 -19.5589546,-2.5624418 -19.5329006,-2.4604111 -19.5068527,-2.3564813 -19.4807983,-2.2506333 -19.4547256,-2.1428487 -19.4286231,-2.0331097 -19.40248,-1.9213992 -19.3762861,-1.8077006 -19.3500318,-1.6919983 -19.3237081,-1.5742774 -19.2973067,-1.4545238 -19.2708196,-1.3327243 -19.24424,-1.2088665 -19.2175611,-1.0829391 -19.1907773,-0.9549318 -19.1638834,-0.8248352 -19.1368747,-0.6926411 -19.1097475,-0.5583424 -19.0824986,-0.421933 -19.0551255,-0.2834083 -19.0276263,-0.1427647 -19,0 -19,0 -18.8363229,0.78354 -18.8363229,0.78354 -18.8175521,0.8576966 -18.7978034,0.9311006 -18.7770778,1.0037529 -18.7553767,1.0756544 -18.7327023,1.1468066 -18.7090571,1.2172112 -18.6844443,1.2868703 -18.6588672,1.3557865 -18.6323301,1.4239624 -18.6048372,1.4914012 -18.5763936,1.558106 -18.5470045,1.6240806 -18.5166755,1.6893288 -18.4854127,1.7538547 -18.4532225,1.8176626 -18.4201115,1.880757 -18.3860868,1.9431427 -18.3511558,2.0048246 -18.3153259,2.0658077 -18.2786051,2.1260973 -18.2410013,2.1856988 -18.2025228,2.2446177 -18.1631782,2.3028595 -18.1229761,2.36043 -18.0819253,2.417335 -18.0400346,2.4735803 -17.9973133,2.5291719 -17.9537705,2.5841157 -17.9094154,2.6384177 -17.8642574,2.692084 -17.8183059,2.7451206 -17.7715704,2.7975336 -17.7240606,2.849329 -17.675786,2.900513 -17.6267562,2.9510916 -17.5769811,3.0010709 -17.5264703,3.0504571 -17.4752335,3.0992561 -17.4232807,3.147474 -17.3706214,3.1951168 -17.3172655,3.2421904 -17.2632227,3.2887007 -17.2085027,3.3346537 -17.1531152,3.380055 -17.09707,3.4249106 -17.0403765,3.4692259 -16.9830443,3.5130066 -16.925083,3.5562583 -16.8665018,3.5989864 -16.8073102,3.6411961 -16.7475173,3.6828927 -16.6871324,3.7240813 -16.6261643,3.764767 -16.5646221,3.8049547 -16.5025145,3.844649 -16.4398503,3.8838547 -16.3766379,3.9225762 -16.3128858,3.9608181 -16.2486024,3.9985846 -16.1837959,4.0358799 -16.1184743,4.072708 -16.0526456,4.1090729 -15.9863176,4.1449784 -15.9194979,4.1804281 -15.8521942,4.2154256 -15.7844138,4.2499743 -15.716164,4.2840776 -15.647452,4.3177385 -15.5782846,4.3509602 -15.5086689,4.3837454 -15.4386115,4.4160971 -15.3681188,4.4480178 -15.2971974,4.4795101 -15.2258535,4.5105762 -15.0819222,4.5714391 -14.9363718,4.6306225 -14.7892465,4.6881405 -14.6405879,4.7440048 -14.4904351,4.7982253 -14.3388248,4.8508096 -14.1857911,4.9017635 -14.0313658,4.9510911 -13.8755783,4.9987947 -13.7184557,5.044875 -13.5600228,5.0893312 -13.4003022,5.1321612 -13.2393145,5.1733613 -13.077078,5.2129269 -12.9136089,5.2508522 -12.7489215,5.2871301 -12.5830281,5.3217531 -12.4159393,5.3547129 -12.247664,5.3860009 -12.0782096,5.4156082 -11.9075822,5.4435264 -11.7357864,5.4697471 -11.562826,5.4942626 -11.3887036,5.5170661 -11.2134211,5.5381518 -11.0369794,5.5575151 -10.8593791,5.5751531 A0.8022283,0.8022283 298.5104663 0,1 -11.2373315,7.082308 L-11.2373315,7.082308 -11.3261132,7.0828029 -11.4142065,7.0831841 -11.5016116,7.0834515 -11.5883287,7.0836051 -11.6743584,7.0836449 -11.7597012,7.0835708 -11.8443576,7.0833827 -11.9283286,7.0830807 -12.0116148,7.0826646 -12.0942174,7.0821343 -12.1761373,7.0814898 -12.2573758,7.0807309 -12.3379341,7.0798575 -12.4178135,7.0788694 -12.4970154,7.0777666 -12.5755416,7.0765488 -12.6533935,7.0752159 -12.7305729,7.0737677 -12.8070816,7.0722039 -12.8829215,7.0705245 -12.9580946,7.068729 -13.032603,7.0668174 -13.1064487,7.0647893 -13.179634,7.0626445 -13.2521613,7.0603827 -13.3240328,7.0580036 -13.3952511,7.0555069 -13.4658186,7.0528922 -13.5357379,7.0501593 -13.6050117,7.0473078 -13.6736427,7.0443372 -13.7416338,7.0412472 -13.8089877,7.0380375 -13.8757073,7.0347075 -13.9417957,7.0312569 -14.0072558,7.0276852 -14.0720908,7.023992 -14.1363038,7.0201767 -14.1998981,7.0162389 -14.2628767,7.012178 -14.3252431,7.0079936 -14.3870005,7.003685 -14.4481525,6.9992517 -14.5087023,6.9946931 -14.5686535,6.9900087 -14.6280096,6.9851978 -14.6867742,6.9802597 -14.7449508,6.9751939 -14.8595548,6.9646761 -14.971851,6.9536388 -15.0818694,6.9420762 -15.1896403,6.9299821 -15.2951946,6.9173498 -15.3985635,6.9041727 -15.4997785,6.8904435 -15.5988717,6.8761549 -15.6958752,6.8612991 -15.7908217,6.8458681 -15.883744,6.8298534 -15.9746751,6.8132463 -16.0636484,6.796038 -16.1506974,6.7782189 -16.2358558,6.7597796 -16.3191573,6.7407099 -16.400636,6.7209997 -16.4803259,6.7006382 -16.5582611,6.6796146 -16.6344758,6.6579176 -16.7090043,6.6355354 -16.7818806,6.6124563 -16.853139,6.5886679 -16.9228136,6.5641576 -16.9909384,6.5389125 -17.0575475,6.5129193 -17.1226745,6.4861642 -17.1863532,6.4586335 -17.248617,6.4303127 -17.3094993,6.4011872 -17.3690332,6.3712421 -17.4272516,6.3404619 -17.4841871,6.3088311 -17.5398722,6.2763337 -17.5943391,6.2429534 -17.6476199,6.2086737 -17.6997464,6.1734776 -17.7507498,6.1373481 -17.8006617,6.1002675 -17.8495127,6.0622181 -17.8973337,6.0231819 -17.944155,5.9831405 -17.9900067,5.9420754 -18.0349185,5.8999677 -18.07892,5.8567981 -18.1220402,5.8125474 -18.1643079,5.7671959 -18.2057516,5.7207237 -18.2463994,5.6731107 -18.2862791,5.6243364 -18.325418,5.5743804 -18.3638431,5.5232216 -18.401581,5.4708391 -18.438658,5.4172117 -18.4750999,5.3623177 -18.510932,5.3061356 -18.5461795,5.2486435 -18.5808669,5.1898194 -18.6150184,5.1296412 -18.6486577,5.0680866 -18.6818083,5.0051333 -18.7144929,4.9407588 -18.7467342,4.8749406 -18.778554,4.8076563 -18.8099741,4.7388833 -18.8410156,4.668599 -18.8716992,4.5967809 -18.9020452,4.5234065 -18.9320734,4.4484534 -18.9618032,4.3718991 -18.9912534,4.2937214 -19.0204425,4.2138981 -19.0493885,4.1324072 -19.0781087,4.0492267 -19.1066203,3.964335 -19.1349398,3.8777104 -19.1630832,3.7893316 -19.1910661,3.6991775 -19.2189035,3.6072272 -19.24661,3.51346 -19.2741997,3.4178557 -19.3016861,3.3203943 -19.3290823,3.221056 -19.3564009,3.1198217 -19.3836538,3.0166727 -19.4108525,2.9115907 -19.438008,2.8045579 -19.4651306,2.6955573 -19.4922303,2.5845724 -19.5193164,2.4715872 -19.5463975,2.3565868 -19.5734819,2.2395566 -19.6005772,2.120483 -19.6276905,1.9993534 -19.6548283,1.8761559 -19.6819963,1.7508794 -19.7091999,1.6235139 -19.7364438,1.4940504 -19.7637322,1.362481 -19.7910684,1.2287987 -19.8184553,1.0929977 -19.8458953,0.9550734 -19.8733898,0.8150224 -19.9009401,0.6728426 -19.9009401,0.6728426 -20.1000003,-0.2z" transform="matrix(1,0,0,-1,28.3563229,7.0836449)" stroke="none" fill="#ffffff" /></svg>