<?xml version="1.0" encoding="utf-8"?>
<!-- Generator: Fusion 360, Shaper Origin Export Add-In, Version 1.9.0  -->
<svg xmlns="http://www.w3.org/2000/svg" xmlns:xlink="http://www.w3.org/1999/xlink" xmlns:shaper="http://www.shapertools.com/namespaces/shaper" shaper:fusionaddin="version:1.9.0" width="17.916253cm" height="14.0176216cm" version="1.1" x="0cm" y="0cm" viewBox="0 0 17.916253 14.0176216" enable-background="new 0 0 17.916253 14.0176216" xml:space="preserve"><path d="M-19.6823174,0.0637329 L-19.6823174,0.0637329 -19.7017239,-0.0132899 -19.7220076,-0.0896982 -19.7431677,-0.1654924 -19.7652031,-0.2406732 -19.7881121,-0.3152415 -19.8118928,-0.3891986 -19.8365429,-0.4625458 -19.8620595,-0.5352846 -19.8884397,-0.6074169 -19.9156801,-0.6789446 -19.9437769,-0.7498698 -19.9727262,-0.8201948 -20.0025237,-0.8899221 -20.0331649,-0.9590542 -20.064645,-1.0275938 -20.096959,-1.0955437 -20.1301017,-1.1629069 -20.1640676,-1.2296864 -20.1988513,-1.2958852 -20.2344469,-1.3615065 -20.2708486,-1.4265535 -20.3080502,-1.4910296 -20.3460458,-1.5549379 -20.384829,-1.6182819 -20.4243936,-1.6810648 -20.4647331,-1.7432901 -20.5058412,-1.8049611 -20.5477113,-1.8660811 -20.590337,-1.9266533 -20.6337118,-1.9866812 -20.6778291,-2.0461679 -20.7226825,-2.1051166 -20.7682653,-2.1635305 -20.8145711,-2.2214128 -20.8615934,-2.2787666 -20.9093257,-2.3355947 -20.9577616,-2.3919003 -21.0068946,-2.4476862 -21.0567183,-2.5029553 -21.1072265,-2.5577103 -21.158413,-2.6119538 -21.2102714,-2.6656886 -21.2627958,-2.718917 -21.3159801,-2.7716415 -21.3698183,-2.8238645 -21.4243045,-2.8755881 -21.4794332,-2.9268144 -21.5351985,-2.9775455 -21.5915951,-3.0277832 -21.6486174,-3.0775292 -21.7062603,-3.1267853 -21.7645187,-3.1755529 -21.8233874,-3.2238333 -21.8828618,-3.2716278 -21.9429372,-3.3189375 -22.003609,-3.3657634 -22.0648728,-3.4121062 -22.1267244,-3.4579666 -22.1891598,-3.5033452 -22.252175,-3.5482423 -22.3157663,-3.5926583 -22.3799301,-3.6365933 -22.4446628,-3.6800472 -22.5099613,-3.72302 -22.5758223,-3.7655113 -22.642243,-3.8075208 -22.7092204,-3.8490479 -22.776752,-3.8900919 -22.8448352,-3.9306521 -22.9134677,-3.9707273 -22.9826473,-4.0103167 -23.052372,-4.0494188 -23.1226401,-4.0880324 -23.1934497,-4.1261561 -23.2647994,-4.163788 -23.3366878,-4.2009266 -23.4091138,-4.2375698 -23.4820764,-4.2737157 -23.5555747,-4.3093621 -23.6296081,-4.3445067 -23.704176,-4.3791471 -23.7792781,-4.4132807 -23.8549142,-4.4469048 -23.9310842,-4.4800168 -24.0077882,-4.5126138 -24.0850264,-4.5446928 -24.1627992,-4.5762507 -24.2411071,-4.6072845 -24.3199506,-4.6377908 -24.3993306,-4.6677665 -24.4792479,-4.6972081 -24.5597033,-4.7261122 -24.6406981,-4.7544752 -24.7222333,-4.7822937 -24.8043103,-4.809564 -24.8869304,-4.8362825 -24.970095,-4.8624455 -25.0538058,-4.8880492 -25.1380643,-4.9130899 -25.2228722,-4.9375637 -25.3082313,-4.961467 -25.3941435,-4.9847958 -25.4806107,-5.0075463 -25.5676348,-5.0297147 -25.6552178,-5.0512971 -25.7433619,-5.0722897 -25.8320691,-5.0926888 -25.9213415,-5.1124904 -26.0111812,-5.1316911 -26.1015905,-5.1502871 -26.1925713,-5.1682748 -26.2841258,-5.1856507 -26.376256,-5.2024115 -26.468964,-5.218554 -26.5622518,-5.2340748 -26.6561212,-5.2489711 -26.750574,-5.26324 -26.8456121,-5.2768786 -26.9412371,-5.2898846 -27.0374505,-5.3022555 -27.1342539,-5.3139891 -27.2316484,-5.3250835 -27.3296353,-5.335537 -27.4282156,-5.3453479 -27.5273903,-5.354515 -27.6271599,-5.3630373 -27.7275251,-5.370914 -27.8284862,-5.3781446 A0.8022283,0.8022283 110.0010139 0,1 -27.5029203,-6.9325822 L-27.5029203,-6.9325822 -27.4141794,-6.9268471 -27.3261625,-6.9210321 -27.2388695,-6.9151371 -27.1522999,-6.9091622 -27.0664534,-6.9031072 -26.9813293,-6.8969721 -26.896927,-6.8907569 -26.8132456,-6.8844614 -26.7302843,-6.8780855 -26.648042,-6.8716291 -26.5665175,-6.8650921 -26.4857097,-6.8584743 -26.4056171,-6.8517756 -26.3262384,-6.8449957 -26.2475719,-6.8381346 -26.1696161,-6.8311919 -26.0923691,-6.8241674 -26.0158292,-6.817061 -25.9399944,-6.8098723 -25.8648627,-6.8026011 -25.7904319,-6.795247 -25.7166999,-6.7878099 -25.6436644,-6.7802893 -25.571323,-6.772685 -25.4996731,-6.7649965 -25.4287124,-6.7572236 -25.3584382,-6.7493657 -25.2888478,-6.7414226 -25.2199384,-6.7333938 -25.1517072,-6.7252789 -25.0841512,-6.7170774 -25.0172675,-6.7087889 -24.9510531,-6.7004128 -24.8855047,-6.6919488 -24.8206193,-6.6833961 -24.7563935,-6.6747544 -24.6928242,-6.6660231 -24.6299078,-6.6572015 -24.567641,-6.6482892 -24.5060203,-6.6392855 -24.4450422,-6.6301898 -24.3847031,-6.6210014 -24.3249993,-6.6117197 -24.2659272,-6.602344 -24.207483,-6.5928736 -24.149663,-6.5833079 -24.0924634,-6.573646 -24.0358802,-6.5638873 -23.9799097,-6.5540309 -23.9245478,-6.5440761 -23.8697906,-6.534022 -23.8156341,-6.523868 -23.7620743,-6.513613 -23.709107,-6.5032563 -23.6049338,-6.4822341 -23.5030815,-6.4607941 -23.4035164,-6.4389287 -23.3062046,-6.4166302 -23.2111117,-6.3938903 -23.1182029,-6.3707006 -23.0274433,-6.3470523 -22.9387974,-6.3229363 -22.8522295,-6.2983432 -22.7677038,-6.2732634 -22.6851841,-6.2476869 -22.6046341,-6.2216034 -22.5260171,-6.1950022 -22.4492966,-6.1678725 -22.3744357,-6.1402031 -22.3013976,-6.1119823 -22.2301451,-6.0831984 -22.1606414,-6.0538393 -22.0928493,-6.0238924 -22.0267319,-5.993345 -21.9622521,-5.962184 -21.899373,-5.930396 -21.8380577,-5.8979674 -21.7782695,-5.8648841 -21.7199719,-5.8311317 -21.6631282,-5.7966956 -21.6077024,-5.761561 -21.5536583,-5.7257124 -21.5009601,-5.6891344 -21.4495721,-5.6518111 -21.3994588,-5.6137264 -21.3505851,-5.5748638 -21.3029159,-5.5352067 -21.2564165,-5.494738 -21.2110524,-5.4534405 -21.1667894,-5.4112967 -21.1235936,-5.3682888 -21.0814312,-5.3243987 -21.0402689,-5.2796083 -21.0000737,-5.233899 -20.9608127,-5.1872521 -20.9224535,-5.1396484 -20.884964,-5.0910689 -20.8483124,-5.0414941 -20.8124673,-4.9909042 -20.7773976,-4.9392795 -20.7430727,-4.8865999 -20.7094621,-4.832845 -20.676536,-4.7779944 -20.6442647,-4.7220274 -20.6126192,-4.6649231 -20.5815707,-4.6066605 -20.5510909,-4.5472183 -20.5211519,-4.4865753 -20.4917263,-4.4247099 -20.4627869,-4.3616006 -20.4343073,-4.2972256 -20.4062613,-4.2315632 -20.3786231,-4.1645917 -20.3513676,-4.096289 -20.3244699,-4.0266335 -20.2979057,-3.9556031 -20.2716513,-3.883176 -20.2456831,-3.8093304 -20.2199783,-3.7340445 -20.1945145,-3.6572966 -20.1692698,-3.579065 -20.1442227,-3.4993282 -20.1193524,-3.4180649 -20.0946383,-3.3352536 -20.0700607,-3.2508734 -20.0456001,-3.1649033 -20.0212376,-3.0773224 -19.9969549,-2.9881103 -19.9727342,-2.8972466 -19.9485582,-2.8047113 -19.9244102,-2.7104846 -19.900274,-2.6145468 -19.876134,-2.5168789 -19.8519751,-2.4174619 -19.8277828,-2.3162776 -19.8035433,-2.2133078 -19.7792432,-2.1085352 -19.7548698,-2.0019427 -19.7304111,-1.8935141 -19.7058555,-1.7832334 -19.6811922,-1.6710855 -19.656411,-1.5570561 -19.6315022,-1.4411312 -19.6064571,-1.323298 -19.5812672,-1.2035443 -19.5559251,-1.0818587 -19.5304238,-0.9582307 -19.504757,-0.8326508 -19.4789193,-0.7051103 -19.4529058,-0.5756017 -19.4267123,-0.4441184 -19.4003355,-0.3106549 -19.3737728,-0.1752067 -19.347022,-0.0377706 -19.3200822,0.1016554 -19.3200822,0.1016554 -19.1932998,0.6976446 -19.1932998,0.6976446 -19.173745,0.7748531 -19.1531575,0.8512436 -19.1315383,0.9268167 -19.108889,1.0015737 -19.085212,1.0755161 -19.0605098,1.1486459 -19.0347858,1.2209656 -19.0080439,1.2924777 -18.9802882,1.3631855 -18.9515235,1.4330923 -18.9217551,1.5022018 -18.8909885,1.5705181 -18.8592299,1.6380454 -18.8264856,1.7047885 -18.7927626,1.7707521 -18.7580679,1.8359413 -18.7224091,1.9003614 -18.685794,1.964018 -18.6482307,2.0269168 -18.6097276,2.0890636 -18.5702932,2.1504646 -18.5299365,2.2111258 -18.4886665,2.2710537 -18.4464925,2.3302547 -18.4034239,2.3887354 -18.3594703,2.4465023 -18.3146415,2.5035622 -18.2689472,2.5599218 -18.2223974,2.6155881 -18.1750022,2.6705677 -18.1267716,2.7248676 -18.0777159,2.7784947 -18.0278453,2.831456 -17.9771703,2.8837585 -17.9257011,2.935409 -17.8734482,2.9864145 -17.8204221,3.0367821 -17.7666333,3.0865187 -17.7120923,3.1356311 -17.6568095,3.1841264 -17.6007957,3.2320113 -17.5440611,3.2792927 -17.4866163,3.3259775 -17.4284719,3.3720722 -17.3696381,3.4175837 -17.3101254,3.4625184 -17.249944,3.506883 -17.1891043,3.5506839 -17.1276165,3.5939274 -17.0654905,3.6366198 -17.0027364,3.6787673 -16.9393642,3.7203759 -16.8753835,3.7614515 -16.8108042,3.802 -16.7456356,3.8420271 -16.6798874,3.8815384 -16.6135688,3.9205393 -16.5466891,3.9590351 -16.4792572,3.9970311 -16.4112822,4.0345323 -16.3427728,4.0715437 -16.2737378,4.1080702 -16.2041857,4.1441163 -16.1341249,4.1796868 -16.0635637,4.214786 -15.9925103,4.2494183 -15.9209726,4.2835877 -15.8489585,4.3172984 -15.7764756,4.3505543 -15.7035316,4.383359 -15.6301338,4.4157163 -15.5562894,4.4476296 -15.4820056,4.4791022 -15.4072893,4.5101374 -15.3321471,4.5407382 -15.2565859,4.5709074 -15.1042313,4.6299623 -14.9502751,4.6873224 -14.7947638,4.7430058 -14.6377417,4.7970281 -14.47925,4.8494029 -14.3193276,4.900142 -14.1580109,4.9492547 -13.9953336,4.9967489 -13.8313272,5.0426305 -13.6660205,5.0869036 -13.4994401,5.129571 -13.3316101,5.1706337 -13.1625527,5.2100913 -12.9922873,5.2479422 -12.8208315,5.2841835 -12.6482006,5.3188112 -12.474408,5.3518205 -12.2994652,5.3832059 -12.123382,5.4129618 -11.9461665,5.4410819 -11.7678255,5.4675605 -11.588364,5.4923919 -11.4077863,5.5155708 -11.2260951,5.5370928 -11.0432924,5.5569544 -10.8593791,5.5751531 A0.8022283,0.8022283 298.5104663 0,1 -11.2373315,7.082308 L-11.2373315,7.082308 -11.3249251,7.0827849 -11.4118196,7.0831269 -11.4980152,7.0833338 -11.5835122,7.0834056 -11.6683112,7.0833424 -11.7524126,7.0831441 -11.8358171,7.0828107 -11.9185256,7.0823421 -12.0005388,7.0817384 -12.0818577,7.0809995 -12.1624835,7.0801254 -12.2424174,7.0791159 -12.3216605,7.0779711 -12.4002144,7.0766908 -12.4780806,7.075275 -12.5552605,7.0737236 -12.6317558,7.0720366 -12.7075684,7.0702137 -12.7827001,7.068255 -12.8571528,7.0661603 -12.9309286,7.0639294 -13.0040295,7.0615623 -13.0764578,7.0590588 -13.1482157,7.0564187 -13.2193056,7.0536419 -13.28973,7.0507282 -13.3594912,7.0476774 -13.428592,7.0444894 -13.497035,7.0411639 -13.5648228,7.0377007 -13.6319583,7.0340996 -13.6984444,7.0303604 -13.7642839,7.0264828 -13.8294798,7.0224666 -13.8940353,7.0183114 -13.9579534,7.014017 -14.0212372,7.0095832 -14.0838901,7.0050095 -14.1459152,7.0002957 -14.2073159,6.9954415 -14.2680956,6.9904464 -14.3282578,6.9853102 -14.3878058,6.9800325 -14.4467433,6.9746128 -14.5050737,6.9690507 -14.5628007,6.9633459 -14.619928,6.9574979 -14.6764593,6.9515063 -14.7323982,6.9453706 -14.7877486,6.9390903 -14.8966988,6.9260939 -15.0033408,6.9125131 -15.1077058,6.8983434 -15.2098253,6.8835801 -15.3097316,6.8682183 -15.407457,6.8522527 -15.5030345,6.835678 -15.5964972,6.8184883 -15.6878786,6.8006776 -15.7772125,6.7822395 -15.8645329,6.7631676 -15.9498742,6.7434548 -16.0332709,6.7230941 -16.1147576,6.702078 -16.1943692,6.6803987 -16.2721407,6.6580482 -16.3481072,6.6350181 -16.4223039,6.6112998 -16.494766,6.5868844 -16.5655289,6.5617627 -16.6346278,6.535925 -16.7020979,6.5093615 -16.7679746,6.482062 -16.8322931,6.4540161 -16.8950883,6.4252129 -16.9563952,6.3956413 -17.0162488,6.3652899 -17.0746835,6.3341469 -17.1317339,6.3022001 -17.1874343,6.2694372 -17.2418187,6.2358455 -17.294921,6.2014119 -17.3467749,6.1661231 -17.3974137,6.1299654 -17.4468708,6.0929248 -17.495179,6.0549873 -17.5423711,6.0161382 -17.5884794,5.9763628 -17.6335361,5.9356459 -17.6775733,5.8939722 -17.7206223,5.8513262 -17.7627146,5.8076919 -17.8038811,5.7630531 -17.8441525,5.7173935 -17.8835593,5.6706964 -17.9221313,5.6229449 -17.9598984,5.5741218 -17.9968898,5.5242098 -18.0331345,5.4731912 -18.0686611,5.4210482 -18.1034979,5.3677626 -18.1376728,5.3133163 -18.1712131,5.2576906 -18.2041459,5.2008668 -18.2364979,5.142826 -18.2682953,5.083549 -18.2995639,5.0230167 -18.3303292,4.9612097 -18.360616,4.8981083 -18.390449,4.8336929 -18.4198523,4.7679439 -18.4488495,4.7008414 -18.4774638,4.6323655 -18.5057181,4.5624964 -18.5336347,4.4912141 -18.5612354,4.4184987 -18.5885417,4.3443303 -18.6155745,4.2686889 -18.6423543,4.1915548 -18.6689012,4.1129082 -18.6952345,4.0327294 -18.7213734,3.9509988 -18.7473365,3.8676968 -18.7731417,3.7828042 -18.7988068,3.6963018 -18.8243486,3.6081704 -18.8497839,3.5183913 -18.8751286,3.4269459 -18.9003983,3.3338156 -18.9256081,3.2389822 -18.9507723,3.142428 -18.975905,3.0441353 -19.0010195,2.944087 -19.0261288,2.8422661 -19.0512452,2.7386564 -19.0763803,2.6332419 -19.1015454,2.5260073 -19.1267511,2.4169377 -19.1520073,2.3060189 -19.1773236,2.1932373 -19.2027087,2.0785799 -19.2281708,1.9620346 -19.2537176,1.8435898 -19.279356,1.7232348 -19.3050925,1.6009597 -19.3309326,1.4767556 -19.3568816,1.3506141 -19.3829438,1.2225283 -19.4091231,1.0924918 -19.4354225,0.9604993 -19.4618445,0.8265469 -19.4883908,0.6906312 -19.5150627,0.5527505 -19.5150627,0.5527505 -19.6823174,0.0637329z" transform="matrix(1,0,0,-1,28.3563229,7.0834056)" stroke="none" fill="#ffffff" /></svg>