<?xml version="1.0" encoding="utf-8"?>
<!-- Generator: Fusion 360, Shaper Origin Export Add-In, Version 1.9.0  -->
<svg xmlns="http://www.w3.org/2000/svg" xmlns:xlink="http://www.w3.org/1999/xlink" xmlns:shaper="http://www.shapertools.com/namespaces/shaper" shaper:fusionaddin="version:1.9.0" width="17.3108992cm" height="14.0215985cm" version="1.1" x="0cm" y="0cm" viewBox="0 0 17.3108992 14.0215985" enable-background="new 0 0 17.3108992 14.0215985" xml:space="preserve"><path d="M-27.5029203,-6.9325822 L-27.5029203,-6.9325822 -27.416735,-6.9270465 -27.3311958,-6.9214981 -27.2463027,-6.9159369 -27.1620553,-6.9103629 -27.0784533,-6.9047758 -26.995496,-6.8991756 -26.913183,-6.8935622 -26.8315135,-6.8879353 -26.7504868,-6.8822946 -26.6701018,-6.8766401 -26.5903577,-6.8709713 -26.5112533,-6.8652879 -26.4327875,-6.8595897 -26.354959,-6.8538762 -26.2777665,-6.8481471 -26.2012085,-6.842402 -26.1252835,-6.8366403 -26.04999,-6.8308616 -25.9753261,-6.8250655 -25.9012902,-6.8192513 -25.8278805,-6.8134185 -25.7550949,-6.8075665 -25.6829316,-6.8016947 -25.6113884,-6.7958024 -25.5404632,-6.789889 -25.4701539,-6.7839538 -25.400458,-6.777996 -25.3313734,-6.7720149 -25.2628976,-6.7660096 -25.1950282,-6.7599795 -25.1277625,-6.7539236 -25.0610981,-6.7478411 -24.9295622,-6.7355926 -24.8003986,-6.7232266 -24.6735847,-6.7107352 -24.549097,-6.69811 -24.4269111,-6.6853424 -24.3070021,-6.6724232 -24.1893443,-6.6593428 -24.0739115,-6.6460912 -23.9606769,-6.6326582 -23.8496132,-6.6190328 -23.7406927,-6.605204 -23.6338873,-6.59116 -23.5291683,-6.576889 -23.4265069,-6.5623784 -23.3258738,-6.5476157 -23.2272396,-6.5325874 -23.1305742,-6.5172802 -23.0358478,-6.50168 -22.9430298,-6.4857726 -22.8520896,-6.4695431 -22.7629966,-6.4529765 -22.6757198,-6.4360573 -22.590228,-6.4187697 -22.50649,-6.4010975 -22.4244746,-6.3830239 -22.3441501,-6.3645322 -22.2654853,-6.3456048 -22.1884485,-6.3262242 -22.1130083,-6.3063723 -22.0391332,-6.2860306 -21.9667916,-6.2651805 -21.8959521,-6.2438026 -21.8265835,-6.2218777 -21.7586544,-6.1993857 -21.6921339,-6.1763067 -21.6269909,-6.1526199 -21.5631947,-6.1283046 -21.5007146,-6.1033395 -21.4395204,-6.0777031 -21.3795818,-6.0513736 -21.3208688,-6.0243287 -21.2633518,-5.996546 -21.207001,-5.9680027 -21.1517873,-5.9386757 -21.0976817,-5.9085416 -21.0446552,-5.8775767 -20.9926793,-5.8457571 -20.9417258,-5.8130586 -20.8917667,-5.7794568 -20.8427741,-5.7449269 -20.7947207,-5.7094439 -20.7475794,-5.6729826 -20.7013232,-5.6355177 -20.6559257,-5.5970233 -20.6113607,-5.5574737 -20.5676021,-5.5168427 -20.5246246,-5.4751039 -20.4824029,-5.432231 -20.4409122,-5.3881971 -20.4001279,-5.3429754 -20.3600259,-5.2965388 -20.3205825,-5.2488601 -20.2817743,-5.1999119 -20.2435783,-5.1496665 -20.2059719,-5.0980964 -20.1689328,-5.0451737 -20.1324394,-4.9908707 -20.09647,-4.9351594 -20.0610038,-4.8780119 -20.0260201,-4.8194002 -19.9914986,-4.7592963 -19.9574196,-4.6976724 -19.9237636,-4.6345005 -19.8905117,-4.5697529 -19.8576452,-4.5034018 -19.8251461,-4.4354196 -19.7929965,-4.3657788 -19.7611792,-4.294452 -19.7296773,-4.2214121 -19.6984744,-4.1466322 -19.6675543,-4.0700855 -19.6369016,-3.9917454 -19.6065011,-3.9115857 -19.5763381,-3.8295804 -19.5463984,-3.7457038 -19.516668,-3.6599305 -19.4871338,-3.5722355 -19.4577827,-3.4825941 -19.4286023,-3.390982 -19.3995807,-3.2973755 -19.3707063,-3.2017511 -19.341968,-3.1040861 -19.3133554,-3.0043582 -19.2848582,-2.9025458 -19.256467,-2.7986279 -19.2281724,-2.6925844 -19.199966,-2.5843959 -19.1718395,-2.4740435 -19.1437853,-2.3615096 -19.1157961,-2.2467773 -19.0878655,-2.1298306 -19.0599871,-2.0106546 -19.0321555,-1.8892353 -19.0043653,-1.76556 -18.9766122,-1.6396168 -18.9488919,-1.5113954 -18.9212009,-1.3808863 -18.8935362,-1.2480817 -18.8658954,-1.1129746 -18.8382764,-0.9755598 -18.8106779,-0.8358334 -18.783099,-0.6937927 -18.783099,-0.6937927 -18.480039,0.8803395 -18.480039,0.8803395 -18.4620648,0.9516731 -18.4432591,1.0225067 -18.4236225,1.0928405 -18.4031563,1.1626751 -18.3818621,1.2320111 -18.3597419,1.3008494 -18.336798,1.369191 -18.3130331,1.4370369 -18.2884504,1.5043886 -18.2630533,1.5712473 -18.2368455,1.6376146 -18.209831,1.7034922 -18.1820142,1.7688817 -18.1533996,1.833785 -18.1239921,1.8982039 -18.0937968,1.9621405 -18.062819,2.0255968 -18.0310642,2.0885749 -17.9985381,2.1510768 -17.9652466,2.2131048 -17.9311957,2.2746611 -17.8963917,2.3357479 -17.8608407,2.3963674 -17.8245493,2.4565219 -17.787524,2.5162136 -17.7497714,2.5754447 -17.7112981,2.6342173 -17.6721109,2.6925337 -17.6322166,2.750396 -17.5916218,2.8078062 -17.5503336,2.8647664 -17.5083587,2.9212785 -17.465704,2.9773446 -17.4223765,3.0329664 -17.378383,3.0881459 -17.3337304,3.1428847 -17.2884256,3.1971847 -17.2424754,3.2510473 -17.1958868,3.3044742 -17.1486664,3.3574668 -17.1008212,3.4100266 -17.0523578,3.4621548 -17.0032828,3.5138527 -16.953603,3.5651214 -16.9033248,3.615962 -16.8524548,3.6663753 -16.8009993,3.7163623 -16.7489646,3.7659236 -16.6963571,3.8150598 -16.6431826,3.8637715 -16.5894474,3.912059 -16.5351572,3.9599227 -16.4803179,4.0073625 -16.4249351,4.0543786 -16.3690143,4.1009708 -16.3125608,4.1471388 -16.2555801,4.1928824 -16.1980772,4.2382009 -16.1400571,4.2830939 -16.0815246,4.3275604 -16.0224846,4.3715997 -15.9629417,4.4152108 -15.9029003,4.4583925 -15.8423647,4.5011436 -15.7813392,4.5434628 -15.7198278,4.5853486 -15.6578345,4.6267993 -15.5953629,4.6678132 -15.5324169,4.7083885 -15.4689998,4.7485233 -15.4051151,4.7882154 -15.3407659,4.8274626 -15.2759552,4.8662626 -15.2106861,4.904613 -15.1449613,4.9425111 -15.0787834,4.9799544 -15.0121548,5.01694 -14.9450779,5.053465 -14.8775548,5.0895264 -14.8095876,5.125121 -14.7411781,5.1602456 -14.672328,5.1948968 -14.603039,5.2290712 -14.5333124,5.2627653 -14.4631496,5.2959754 -14.3925518,5.3286979 -14.32152,5.360929 -14.2500551,5.3926648 -14.178158,5.4239014 -14.1058293,5.4546349 -14.0330697,5.4848612 -13.9598795,5.5145763 -13.8862591,5.543776 -13.8122088,5.5724563 -13.7377288,5.6006128 -13.662819,5.6282415 -13.5874794,5.655338 -13.5117099,5.6818982 -13.4355102,5.7079177 -13.35888,5.7333922 -13.281819,5.7583175 -13.2043265,5.7826894 -13.126402,5.8065034 -13.048045,5.8297554 -12.9692546,5.8524411 -12.8900302,5.8745564 -12.8103708,5.896097 -12.7302757,5.9170589 -12.6497438,5.937438 -12.5687743,5.9572303 -12.4873662,5.9764321 -12.4055185,5.9950394 -12.3232302,6.0130488 -12.2405003,6.0304567 -12.1573279,6.0472596 -12.0737119,6.0634544 -11.9896514,6.079038 -11.9051455,6.0940075 -11.8201933,6.1083601 -11.734794,6.1220935 -11.6489467,6.1352051 -11.5626508,6.1476931 -11.4759056,6.1595555 -11.3887105,6.1707907 -11.301065,6.1813973 -11.2129687,6.1913744 -11.1244212,6.200721 -11.0354225,6.2094366 A0.4528767,0.4528767 296.3000329 0,1 -11.2335008,7.0683037 L-11.2335008,7.0683037 -11.3253451,7.0687868 -11.4164878,7.0691863 -11.5069291,7.0695022 -11.5966693,7.0697343 -11.6857089,7.0698827 -11.7740484,7.0699472 -11.8616885,7.0699278 -11.9486299,7.0698244 -12.0348735,7.0696367 -12.1204203,7.0693647 -12.2052714,7.0690081 -12.2894279,7.0685669 -12.3728912,7.0680407 -12.4556625,7.0674293 -12.5377434,7.0667325 -12.6191355,7.0659501 -12.6998404,7.0650817 -12.7798598,7.064127 -12.8591956,7.0630856 -12.9378496,7.0619574 -13.015824,7.0607418 -13.0931208,7.0594385 -13.1697422,7.0580471 -13.2456904,7.0565672 -13.3209677,7.0549982 -13.3955766,7.0533399 -13.4695195,7.0515916 -13.542799,7.0497528 -13.6154177,7.0478231 -13.6873783,7.0458019 -13.7586836,7.0436885 -13.8293363,7.0414825 -13.8993394,7.0391833 -13.9686959,7.0367901 -14.0374087,7.0343023 -14.1054809,7.0317193 -14.1729156,7.0290404 -14.239716,7.0262648 -14.3058854,7.0233919 -14.3714271,7.0204208 -14.4363443,7.0173508 -14.5006405,7.0141812 -14.564319,7.0109109 -14.6273835,7.0075393 -14.6898373,7.0040655 -14.7516842,7.0004886 -14.8129275,6.9968076 -14.8735711,6.9930216 -14.9336186,6.9891298 -14.9930736,6.985131 -15.1102215,6.9768089 -15.225045,6.9680469 -15.3375749,6.9588365 -15.4478424,6.9491688 -15.5558791,6.9390344 -15.6617168,6.9284237 -15.7653881,6.9173266 -15.8669253,6.9057326 -15.9663616,6.8936312 -16.06373,6.881011 -16.159064,6.8678607 -16.2523973,6.8541684 -16.3437637,6.8399219 -16.4331973,6.8251086 -16.5207322,6.8097156 -16.6064028,6.7937296 -16.6902433,6.7771369 -16.7722884,6.7599236 -16.8525724,6.7420752 -16.9311299,6.7235771 -17.0079954,6.704414 -17.0832034,6.6845705 -17.1567883,6.6640308 -17.2287844,6.6427787 -17.299226,6.6207976 -17.3681471,6.5980706 -17.4355817,6.5745804 -17.5015634,6.5503093 -17.566126,6.5252393 -17.6293026,6.499352 -17.6911265,6.4726288 -17.7516305,6.4450504 -17.8108473,6.4165976 -17.8688093,6.3872506 -17.9255488,6.3569894 -17.9810975,6.3257935 -18.0354873,6.2936422 -18.0887494,6.2605147 -18.140915,6.2263896 -18.1920148,6.1912452 -18.2420795,6.1550598 -18.291139,6.1178112 -18.3392235,6.0794769 -18.3863623,6.0400343 -18.4325847,5.9994603 -18.4779196,5.9577318 -18.5223955,5.9148253 -18.5660405,5.870717 -18.6088825,5.8253831 -18.6509488,5.7787992 -18.6922666,5.7309411 -18.7328623,5.681784 -18.7727622,5.6313032 -18.8119922,5.5794734 -18.8505776,5.5262697 -18.8885435,5.4716664 -18.9259144,5.4156381 -18.9627143,5.358159 -18.9989671,5.2992035 -19.034696,5.2387457 -19.0699239,5.1767596 -19.1046731,5.1132193 -19.1389655,5.0480988 -19.1728228,4.9813722 -19.206266,4.9130135 -19.2393156,4.8429967 -19.2719919,4.7712962 -19.3043144,4.697886 -19.3363025,4.6227406 -19.367975,4.5458345 -19.39935,4.4671421 -19.4304454,4.3866385 -19.4612785,4.3042984 -19.4918663,4.2200972 -19.5222251,4.1340102 -19.5523707,4.0460131 -19.5823185,3.9560819 -19.6120835,3.8641928 -19.6416801,3.7703222 -19.6711221,3.6744473 -19.7004229,3.5765451 -19.7295955,3.4765936 -19.7586521,3.3745708 -19.7876046,3.2704556 -19.8164643,3.1642272 -19.845242,3.0558657 -19.873948,2.9453517 -19.9025918,2.8326665 -19.9311828,2.7177921 -19.9597294,2.6007116 -19.9882397,2.4814087 -20.0167212,2.3598681 -20.0451808,2.2360752 -20.0736248,2.1100169 -20.102059,1.9816806 -20.1304886,1.8510551 -20.1589182,1.7181302 -20.1873518,1.582897 -20.2157927,1.4453477 -20.2442438,1.3054757 -20.2727073,1.163276 -20.3011848,1.0187446 -20.3296772,0.8718791 -20.3296772,0.8718791 -20.6327372,-0.7022531 -20.6327372,-0.7022531 -20.6498731,-0.7705167 -20.667698,-0.8383939 -20.6862113,-0.9058847 -20.7054122,-0.9729895 -20.7252997,-1.0397085 -20.7458723,-1.1060422 -20.7671285,-1.1719911 -20.7890664,-1.2375557 -20.811684,-1.3027367 -20.8349788,-1.3675345 -20.8589485,-1.4319501 -20.8835903,-1.495984 -20.9089013,-1.5596371 -20.9348786,-1.6229101 -20.9615189,-1.6858038 -20.988819,-1.748319 -21.0167753,-1.8104565 -21.0453843,-1.8722172 -21.0746423,-1.9336018 -21.1045456,-1.994611 -21.1350903,-2.0552457 -21.1662726,-2.1155066 -21.1980884,-2.1753944 -21.2305337,-2.2349096 -21.2636047,-2.2940529 -21.2972971,-2.3528249 -21.331607,-2.411226 -21.3665304,-2.4692566 -21.4020631,-2.5269171 -21.4382014,-2.5842078 -21.474941,-2.6411288 -21.5122782,-2.6976803 -21.550209,-2.7538623 -21.5887296,-2.8096747 -21.627836,-2.8651175 -21.6675246,-2.9201905 -21.7077917,-2.9748932 -21.7486335,-3.0292254 -21.7900465,-3.0831865 -21.8320272,-3.136776 -21.8745722,-3.1899931 -21.9176781,-3.242837 -21.9613417,-3.2953069 -22.0055597,-3.3474018 -22.0503292,-3.3991204 -22.0956472,-3.4504616 -22.1415109,-3.501424 -22.1879174,-3.5520062 -22.2348643,-3.6022065 -22.282349,-3.6520233 -22.3303692,-3.7014546 -22.3789227,-3.7504986 -22.4280074,-3.799153 -22.4776215,-3.8474157 -22.5277631,-3.8952843 -22.5784306,-3.9427562 -22.6296226,-3.9898289 -22.6813377,-4.0364996 -22.7335747,-4.0827654 -22.7863326,-4.1286233 -22.8396105,-4.1740701 -22.8934077,-4.2191025 -22.9477235,-4.2637173 -23.0025575,-4.3079109 -23.0579093,-4.3516796 -23.1137789,-4.3950197 -23.1701661,-4.4379274 -23.2270712,-4.4803986 -23.2844944,-4.5224292 -23.342436,-4.5640151 -23.4008968,-4.6051519 -23.4598773,-4.6458352 -23.5193785,-4.6860604 -23.5794014,-4.7258227 -23.6399471,-4.7651175 -23.7010168,-4.8039399 -23.7626122,-4.8422848 -23.8247347,-4.8801472 -23.8873861,-4.9175218 -23.9505682,-4.9544033 -24.0142832,-4.9907863 -24.0785331,-5.0266654 -24.1433202,-5.0620349 -24.2086469,-5.0968892 -24.2745157,-5.1312226 -24.3409292,-5.1650293 -24.4078901,-5.1983035 -24.4754014,-5.2310392 -24.5434657,-5.2632307 -24.6120863,-5.2948718 -24.6812661,-5.3259566 -24.7510083,-5.356479 -24.8213161,-5.3864331 -24.8921929,-5.4158128 -24.963642,-5.4446119 -25.0356669,-5.4728244 -25.108271,-5.5004443 -25.1814578,-5.5274655 -25.2552308,-5.553882 -25.3295938,-5.5796877 -25.4045503,-5.6048767 -25.480104,-5.629443 -25.5562585,-5.6533808 -25.6330175,-5.676684 -25.7103848,-5.699347 -25.788364,-5.7213641 -25.8669588,-5.7427295 -25.9461729,-5.7634378 -26.0260098,-5.7834834 -26.1064731,-5.8028612 -26.1875662,-5.8215659 -26.2692926,-5.8395925 -26.3516556,-5.8569362 -26.4346583,-5.8735924 -26.5183039,-5.8895565 -26.6025954,-5.9048244 -26.6875354,-5.9193919 -26.7731269,-5.9332553 -26.8593721,-5.9464111 -26.9462735,-5.958856 -27.0338333,-5.970587 -27.1220533,-5.9816014 -27.2109353,-5.9918967 -27.3004808,-6.001471 -27.3906911,-6.0103224 -27.4815671,-6.0184496 -27.5731098,-6.0258515 -27.6653195,-6.0325275 A0.4600953,0.4600953 93.9024345 1,1 -27.5029203,-6.9325822z" transform="matrix(1,0,0,-1,28.0941018,7.0699472)" stroke="none" fill="#ffffff" /></svg>