<?xml version="1.0" encoding="utf-8"?>
<!-- Generator: Fusion 360, Shaper Origin Export Add-In, Version 1.9.0  -->
<svg xmlns="http://www.w3.org/2000/svg" xmlns:xlink="http://www.w3.org/1999/xlink" xmlns:shaper="http://www.shapertools.com/namespaces/shaper" shaper:fusionaddin="version:1.9.0" width="17.916253cm" height="14.0187254cm" version="1.1" x="0cm" y="0cm" viewBox="0 0 17.916253 14.0187254" enable-background="new 0 0 17.916253 14.0187254" xml:space="preserve"><path d="M-21.030933,-0.7066565 L-21.030933,-0.7066565 -21.0471995,-0.7712674 -21.0641844,-0.835396 -21.0818871,-0.8990427 -21.1003068,-0.9622079 -21.1194421,-1.0248923 -21.1392914,-1.0870969 -21.159853,-1.1488225 -21.1811245,-1.2100704 -21.2031035,-1.2708418 -21.2257875,-1.3311382 -21.2491733,-1.390961 -21.2732578,-1.450312 -21.2980377,-1.5091928 -21.3235093,-1.5676053 -21.3496689,-1.6255514 -21.3765124,-1.6830332 -21.4040356,-1.7400526 -21.4322344,-1.796612 -21.4611043,-1.8527133 -21.4906407,-1.9083589 -21.520839,-1.963551 -21.5516943,-2.0182919 -21.5832018,-2.0725839 -21.6153567,-2.1264294 -21.6481538,-2.1798305 -21.6815882,-2.2327896 -21.7156549,-2.2853091 -21.7503486,-2.3373911 -21.7856644,-2.3890379 -21.8215971,-2.4402516 -21.8581417,-2.4910346 -21.8952929,-2.5413887 -21.9330457,-2.5913163 -21.971395,-2.6408192 -22.0103358,-2.6898995 -22.0498629,-2.738559 -22.0899714,-2.7867998 -22.1306563,-2.8346235 -22.1719127,-2.8820319 -22.2137357,-2.9290267 -22.2561204,-2.9756095 -22.2990621,-3.0217818 -22.3425561,-3.0675451 -22.3865978,-3.1129007 -22.4311827,-3.15785 -22.4763061,-3.202394 -22.5219639,-3.2465339 -22.5681516,-3.2902707 -22.6148652,-3.3336052 -22.6621006,-3.3765383 -22.7098538,-3.4190706 -22.758121,-3.4612027 -22.8068984,-3.5029351 -22.8561825,-3.544268 -22.9059699,-3.5852017 -22.9562572,-3.6257362 -23.0070412,-3.6658716 -23.0583189,-3.7056078 -23.1100873,-3.7449443 -23.1623437,-3.783881 -23.2150852,-3.8224173 -23.2683095,-3.8605525 -23.3220141,-3.8982861 -23.3761967,-3.9356172 -23.4308552,-3.9725447 -23.4859876,-4.0090678 -23.541592,-4.0451851 -23.5976666,-4.0808954 -23.6542099,-4.1161974 -23.7112204,-4.1510895 -23.7686968,-4.18557 -23.8266379,-4.2196374 -23.8850426,-4.2532896 -23.9439101,-4.2865248 -24.0032394,-4.3193409 -24.0630302,-4.3517356 -24.1232817,-4.3837068 -24.1839938,-4.4152521 -24.2451661,-4.4463688 -24.3067986,-4.4770544 -24.3688914,-4.5073062 -24.4314446,-4.5371213 -24.4944586,-4.5664969 -24.5579338,-4.59543 -24.6218707,-4.6239176 -24.6862701,-4.6519563 -24.7511326,-4.6795432 -24.8164593,-4.7066748 -24.882251,-4.7333478 -24.9485089,-4.7595588 -25.0152341,-4.7853043 -25.0824278,-4.8105809 -25.1500915,-4.835385 -25.2182266,-4.859713 -25.2868346,-4.8835612 -25.3559171,-4.906926 -25.4254757,-4.9298038 -25.4955121,-4.9521907 -25.5660282,-4.9740831 -25.6370257,-4.9954773 -25.7085067,-5.0163694 -25.7804729,-5.0367558 -25.8529265,-5.0566327 -25.9258695,-5.0759964 -25.9993039,-5.0948431 -26.0732319,-5.1131691 -26.1476555,-5.1309708 -26.2225768,-5.1482446 -26.2979981,-5.1649869 -26.3739214,-5.1811942 -26.4503488,-5.1968631 -26.5272824,-5.2119902 -26.6047242,-5.2265724 -26.6826762,-5.2406066 -26.7611403,-5.2540896 -26.8401183,-5.2670188 -26.9196121,-5.2793912 -26.9996232,-5.2912045 -27.0801534,-5.3024561 -27.1612041,-5.3131439 -27.2427768,-5.3232657 -27.3248725,-5.3328198 -27.4074926,-5.3418045 -27.4906379,-5.3502183 -27.5743093,-5.3580601 -27.6585075,-5.3653288 -27.7432331,-5.3720238 -27.8284862,-5.3781446 A0.8022283,0.8022283 110.0010139 0,1 -27.5029203,-6.9325822 L-27.5029203,-6.9325822 -27.4161485,-6.9270135 -27.3300204,-6.921441 -27.2445357,-6.9158645 -27.1596941,-6.910284 -27.0754954,-6.9046993 -26.9919389,-6.8991103 -26.909024,-6.8935168 -26.8267502,-6.8879186 -26.7451165,-6.8823155 -26.664122,-6.8767072 -26.5837659,-6.8710934 -26.504047,-6.8654737 -26.4249641,-6.8598478 -26.3465161,-6.8542153 -26.2687015,-6.8485758 -26.1915189,-6.8429288 -26.1149669,-6.8372739 -26.0390438,-6.8316104 -25.963748,-6.825938 -25.8890777,-6.8202559 -25.8150311,-6.8145636 -25.7416064,-6.8088604 -25.6688014,-6.8031457 -25.5966142,-6.7974189 -25.5250427,-6.791679 -25.4540846,-6.7859255 -25.3837377,-6.7801575 -25.3139998,-6.7743742 -25.2448683,-6.7685748 -25.1763409,-6.7627584 -25.0410882,-6.751071 -24.9082208,-6.7393044 -24.7777171,-6.7274507 -24.6495546,-6.7155013 -24.5237098,-6.7034475 -24.4001589,-6.6912799 -24.2788768,-6.6789888 -24.1598383,-6.6665638 -24.0430173,-6.6539945 -23.9283872,-6.6412696 -23.815921,-6.6283778 -23.7055912,-6.615307 -23.5973698,-6.6020451 -23.4912287,-6.5885791 -23.387139,-6.574896 -23.2850719,-6.5609822 -23.1849981,-6.5468237 -23.0868879,-6.5324061 -22.9907117,-6.5177146 -22.8964391,-6.502734 -22.8040401,-6.4874488 -22.713484,-6.471843 -22.6247403,-6.4559001 -22.5377781,-6.4396035 -22.4525666,-6.422936 -22.3690746,-6.40588 -22.287271,-6.3884176 -22.2071248,-6.3705306 -22.1286047,-6.3522003 -22.0516795,-6.3334077 -21.976318,-6.3141333 -21.9024892,-6.2943573 -21.8301618,-6.2740597 -21.7593051,-6.25322 -21.6898879,-6.2318171 -21.6218797,-6.2098301 -21.5552497,-6.1872372 -21.4899677,-6.1640166 -21.4260033,-6.1401459 -21.3633265,-6.1156027 -21.3019075,-6.0903639 -21.2417168,-6.0644063 -21.1827248,-6.0377064 -21.1249025,-6.0102401 -21.0682208,-5.9819835 -21.0126512,-5.9529119 -20.9581652,-5.9230007 -20.9047347,-5.8922247 -20.8523316,-5.8605587 -20.8009284,-5.8279771 -20.7504978,-5.794454 -20.7010126,-5.7599634 -20.6524462,-5.7244788 -20.604772,-5.6879738 -20.5579639,-5.6504215 -20.5119962,-5.611795 -20.4668432,-5.5720669 -20.4224799,-5.5312098 -20.3788814,-5.489196 -20.3360232,-5.4459978 -20.2938813,-5.4015871 -20.252432,-5.3559356 -20.2116518,-5.3090151 -20.1715178,-5.2607969 -20.1320074,-5.2112524 -20.0930983,-5.1603528 -20.0547688,-5.1080691 -20.0169974,-5.0543725 -19.9797631,-4.9992338 -19.9430452,-4.942624 -19.9068235,-4.8845141 -19.8710782,-4.824875 -19.8357898,-4.7636776 -19.8009393,-4.700893 -19.7665082,-4.6364923 -19.7324781,-4.5704467 -19.6988313,-4.5027275 -19.6655505,-4.4333061 -19.6326187,-4.3621541 -19.6000194,-4.2892435 -19.5677364,-4.2145461 -19.5357542,-4.1380342 -19.5040575,-4.0596803 -19.4726315,-3.9794571 -19.4414619,-3.8973377 -19.4105346,-3.8132954 -19.3798363,-3.7273038 -19.3493539,-3.6393372 -19.3190749,-3.5493698 -19.288987,-3.4573765 -19.2590787,-3.3633326 -19.2293386,-3.2672139 -19.1997561,-3.1689968 -19.1703209,-3.0686582 -19.141023,-2.9661757 -19.1118532,-2.8615277 -19.0828027,-2.7546932 -19.0538628,-2.6456522 -19.0250259,-2.5343851 -18.9962844,-2.4208737 -18.9676313,-2.3051005 -18.9390603,-2.1870489 -18.9105654,-2.0667035 -18.882141,-1.9440498 -18.8537823,-1.8190746 -18.8254847,-1.6917658 -18.7972444,-1.5621125 -18.7690579,-1.4301051 -18.7409222,-1.2957352 -18.712835,-1.1589959 -18.6847944,-1.0198816 -18.6567991,-0.8783883 -18.6288481,-0.7345133 -18.6288481,-0.7345133 -18.1983135,0.945806 -18.1983135,0.945806 -18.1809401,1.0145222 -18.1626867,1.0825999 -18.1435541,1.1500398 -18.1235436,1.2168426 -18.1026571,1.2830095 -18.0808969,1.348542 -18.0582656,1.4134416 -18.0347664,1.4777104 -18.0104029,1.5413505 -17.9851788,1.6043644 -17.9590986,1.6667547 -17.9321669,1.7285242 -17.9043886,1.7896761 -17.8757691,1.8502135 -17.8463139,1.9101398 -17.8160289,1.9694587 -17.7849204,2.0281738 -17.7529946,2.086289 -17.7202582,2.1438082 -17.6867182,2.2007357 -17.6523814,2.2570755 -17.6172553,2.312832 -17.5813472,2.3680096 -17.5446646,2.4226126 -17.5072152,2.4766455 -17.4690069,2.530113 -17.4300475,2.5830195 -17.3903451,2.6353696 -17.3499077,2.687168 -17.3087434,2.7384191 -17.2668605,2.7891278 -17.2242672,2.8392985 -17.1809718,2.8889359 -17.1369826,2.9380445 -17.0923081,2.986629 -17.0469566,3.0346939 -17.0009365,3.0822438 -16.9542563,3.1292832 -16.9069245,3.1758164 -16.8589493,3.221848 -16.8103393,3.2673824 -16.7611028,3.3124238 -16.7112481,3.3569766 -16.6607837,3.4010449 -16.6097178,3.4446328 -16.5580586,3.4877445 -16.5058142,3.530384 -16.4529929,3.5725551 -16.3996026,3.6142616 -16.3456512,3.6555073 -16.2911466,3.6962958 -16.2360967,3.7366306 -16.1805089,3.7765152 -16.124391,3.8159527 -16.0677502,3.8549464 -16.010594,3.8934994 -15.9529296,3.9316147 -15.8947641,3.969295 -15.8361044,4.0065431 -15.7769574,4.0433616 -15.7173299,4.079753 -15.6572285,4.1157198 -15.5966597,4.1512641 -15.5356299,4.1863881 -15.4741452,4.2210939 -15.412212,4.2553834 -15.3498361,4.2892583 -15.2870233,4.3227204 -15.1601103,4.3884122 -15.0315169,4.4524696 -14.9012854,4.5149019 -14.7694552,4.5757161 -14.6360638,4.6349173 -14.5011462,4.6925088 -14.3647349,4.7484918 -14.2268603,4.8028655 -14.0875504,4.8556279 -13.946831,4.9067748 -13.8047258,4.9563008 -13.6612565,5.0041992 -13.5164425,5.0504618 -13.3703014,5.0950792 -13.2228489,5.1380412 -13.0740987,5.1793363 -12.9240629,5.2189524 -12.7727517,5.2568765 -12.6201736,5.293095 -12.4663355,5.3275941 -12.3112431,5.3603594 -12.1549007,5.3913771 -11.9973114,5.4206333 -11.8384775,5.4481152 -11.6784004,5.4738104 -11.5170809,5.4977079 -11.3545192,5.519798 -11.1907152,5.5400726 -11.0256686,5.5585257 -10.8593791,5.5751531 A0.8022283,0.8022283 298.5104663 0,1 -11.2373315,7.082308 L-11.2373315,7.082308 -11.3281759,7.0828364 -11.4183508,7.0832926 -11.5078563,7.0836765 -11.5966927,7.083988 -11.6848605,7.0842272 -11.7723602,7.0843939 -11.8591923,7.084488 -11.9453577,7.0845094 -12.0308571,7.0844578 -12.1156915,7.0843331 -12.1998618,7.0841352 -12.2833693,7.0838637 -12.3662151,7.0835184 -12.4484004,7.0830991 -12.5299268,7.0826054 -12.6107957,7.0820371 -12.6910086,7.0813938 -12.7705672,7.0806752 -12.8494732,7.0798808 -12.9277284,7.0790103 -13.0053348,7.0780633 -13.0822943,7.0770392 -13.158609,7.0759376 -13.2342809,7.0747581 -13.3093123,7.0735001 -13.3837054,7.0721631 -13.4574626,7.0707465 -13.5305864,7.0692497 -13.603079,7.0676721 -13.6749432,7.0660132 -13.7461815,7.0642722 -13.8167966,7.0624484 -13.8867911,7.0605412 -13.956168,7.0585499 -14.0249299,7.0564737 -14.0930799,7.0543118 -14.1606209,7.0520634 -14.2275557,7.0497278 -14.2938877,7.0473041 -14.3596197,7.0447914 -14.4247549,7.0421889 -14.4892967,7.0394956 -14.6166124,7.0338331 -14.7415933,7.027796 -14.8642663,7.0213764 -14.9846589,7.0145656 -15.1027992,7.0073549 -15.2187157,6.9997351 -15.3324374,6.9916963 -15.4439935,6.9832287 -15.5534138,6.9743218 -15.6607283,6.9649649 -15.7659672,6.9551467 -15.8691614,6.9448557 -15.9703417,6.93408 -16.0695392,6.9228072 -16.1667853,6.9110246 -16.2621116,6.8987192 -16.3555499,6.8858775 -16.4471321,6.8724855 -16.5368902,6.8585292 -16.6248563,6.8439939 -16.7110627,6.8288645 -16.7955415,6.8131257 -16.8783251,6.7967618 -16.9594459,6.7797566 -17.0389359,6.7620936 -17.1168276,6.7437558 -17.193153,6.7247262 -17.2679442,6.7049869 -17.3412331,6.6845199 -17.4130516,6.6633069 -17.4834314,6.6413291 -17.5524038,6.6185672 -17.6200001,6.5950018 -17.6862515,6.570613 -17.7511886,6.5453805 -17.8148422,6.5192836 -17.8772425,6.4923015 -17.9384198,6.4644128 -17.998404,6.4355959 -18.0572246,6.4058289 -18.114911,6.3750894 -18.1714923,6.3433549 -18.2269974,6.3106025 -18.2814548,6.276809 -18.3348927,6.2419508 -18.387339,6.2060043 -18.4388214,6.1689453 -18.4893671,6.1307495 -18.5390032,6.0913924 -18.5877562,6.050849 -18.6356524,6.0090942 -18.6827179,5.9661027 -18.7289782,5.9218489 -18.7744584,5.8763069 -18.8191835,5.8294506 -18.8631778,5.7812538 -18.9064655,5.7316899 -18.9490703,5.6807322 -18.9910153,5.6283539 -19.0323235,5.5745279 -19.0730173,5.519227 -19.1131188,5.4624238 -19.1526496,5.404091 -19.191631,5.344201 -19.2300837,5.2827263 -19.2680281,5.2196394 -19.3054842,5.1549126 -19.3424716,5.0885184 -19.3790094,5.0204292 -19.4151163,4.9506176 -19.4508105,4.8790561 -19.4861098,4.8057174 -19.5210317,4.7305744 -19.5555931,4.6535999 -19.5898105,4.5747672 -19.6236999,4.4940494 -19.6572771,4.4114202 -19.690557,4.3268532 -19.7235546,4.2403224 -19.7562839,4.1518022 -19.7887589,4.0612669 -19.8209928,3.9686916 -19.8529986,3.8740515 -19.8847886,3.777322 -19.9163748,3.6784793 -19.9477686,3.5774998 -19.9789811,3.4743604 -20.0100228,3.3690389 -20.0409036,3.2615133 -20.0716333,3.1517625 -20.1022207,3.0397661 -20.1326745,2.9255043 -20.1630028,2.8089583 -20.1932131,2.6901101 -20.2233125,2.5689425 -20.2533077,2.4454394 -20.2832046,2.3195855 -20.3130089,2.1913669 -20.3427256,2.0607703 -20.3723592,1.927784 -20.3871461,1.8603913 -20.4019137,1.7923972 -20.4166625,1.7238006 -20.4313927,1.6546004 -20.4461048,1.5847957 -20.4607991,1.5143856 -20.4754758,1.4433692 -20.4901353,1.3717457 -20.5047777,1.2995147 -20.5194033,1.2266755 -20.5340122,1.1532276 -20.5486045,1.0791707 -20.5631802,1.0045046 -20.5777396,0.9292289 -20.5777396,0.9292289 -21.030933,-0.7066565z" transform="matrix(1,0,0,-1,28.3563229,7.0845094)" stroke="none" fill="#ffffff" /></svg>